<svg xmlns="http://www.w3.org/2000/svg" xmlns:xlink="http://www.w3.org/1999/xlink" width="1292" zoomAndPan="magnify" viewBox="0 0 968.88 225" height="300" preserveAspectRatio="xMidYMid meet" version="1.0"><defs><g/><clipPath id="94916c4813"><path d="M 179 54.550781 L 188 54.550781 L 188 64 L 179 64 Z M 179 54.550781 " clip-rule="nonzero"/></clipPath><clipPath id="cf75235ccc"><path d="M 129 70 L 236.722656 70 L 236.722656 145 L 129 145 Z M 129 70 " clip-rule="nonzero"/></clipPath><clipPath id="6a0adf2422"><path d="M 127.234375 111 L 176 111 L 176 121 L 127.234375 121 Z M 127.234375 111 " clip-rule="nonzero"/></clipPath><clipPath id="3855f410ca"><path d="M 127.234375 113 L 144 113 L 144 121 L 127.234375 121 Z M 127.234375 113 " clip-rule="nonzero"/></clipPath></defs><path fill="#5aa0e5" d="M 163.808594 128.800781 C 163.808594 128.800781 165.328125 136.960938 174.042969 143.316406 C 182.757812 149.667969 189.101562 151.285156 192.878906 149.128906 C 193.109375 148.992188 193.613281 148.703125 193.84375 148.128906 C 194.382812 146.761719 192.804688 145.164062 190.816406 142.410156 C 190.796875 142.390625 190.796875 142.371094 190.777344 142.371094 C 188.675781 139.464844 187.078125 136.230469 186.054688 132.785156 C 185.707031 131.59375 185.398438 130.398438 185.109375 129.207031 " fill-opacity="1" fill-rule="nonzero"/><path fill="#192544" d="M 163.808594 128.800781 C 163.808594 128.800781 165.328125 136.960938 174.042969 143.316406 C 182.757812 149.667969 189.101562 151.285156 192.878906 149.128906 C 193.109375 148.992188 193.613281 148.703125 193.84375 148.128906 C 194.382812 146.761719 192.804688 145.164062 190.816406 142.410156 C 190.796875 142.390625 190.796875 142.371094 190.777344 142.371094 C 188.675781 139.464844 187.078125 136.230469 186.054688 132.785156 C 185.707031 131.59375 185.398438 130.398438 185.109375 129.207031 " fill-opacity="0.32" fill-rule="nonzero"/><path fill="#192544" d="M 164.132812 128.742188 L 164.210938 128.953125 C 164.230469 129.03125 164.269531 129.109375 164.289062 129.167969 C 164.308594 129.242188 164.347656 129.320312 164.386719 129.378906 C 164.40625 129.457031 164.441406 129.53125 164.480469 129.589844 C 164.539062 129.746094 164.597656 129.878906 164.65625 130.015625 L 164.75 130.226562 C 164.789062 130.300781 164.808594 130.359375 164.847656 130.4375 C 165.097656 131.015625 165.367188 131.574219 165.65625 132.132812 C 165.945312 132.6875 166.234375 133.226562 166.542969 133.765625 C 166.621094 133.902344 166.699219 134.035156 166.777344 134.171875 L 166.890625 134.363281 L 167.007812 134.554688 C 167.085938 134.691406 167.160156 134.824219 167.257812 134.960938 L 167.507812 135.347656 C 167.585938 135.480469 167.683594 135.597656 167.757812 135.730469 C 167.855469 135.867188 167.933594 135.980469 168.027344 136.117188 L 168.300781 136.5 C 168.335938 136.558594 168.394531 136.636719 168.433594 136.691406 L 168.570312 136.886719 L 168.859375 137.25 L 169.148438 137.617188 C 169.339844 137.867188 169.550781 138.097656 169.746094 138.328125 C 169.839844 138.445312 169.957031 138.558594 170.054688 138.675781 L 170.363281 139.023438 C 170.457031 139.136719 170.574219 139.253906 170.691406 139.351562 L 171.34375 140.003906 L 171.519531 140.15625 C 171.578125 140.214844 171.632812 140.273438 171.691406 140.3125 L 172.039062 140.621094 L 172.210938 140.773438 L 172.289062 140.851562 L 172.386719 140.929688 L 172.734375 141.234375 C 172.847656 141.332031 172.964844 141.449219 173.097656 141.523438 L 173.464844 141.8125 L 173.640625 141.96875 C 173.679688 141.988281 173.695312 142.023438 173.734375 142.042969 L 173.832031 142.121094 L 174.199219 142.390625 L 174.390625 142.527344 C 174.449219 142.5625 174.507812 142.621094 174.582031 142.660156 L 175.355469 143.199219 C 176.394531 143.929688 177.4375 144.625 178.515625 145.257812 C 179.597656 145.914062 180.695312 146.511719 181.8125 147.050781 C 182.371094 147.320312 182.933594 147.570312 183.511719 147.800781 L 183.722656 147.894531 C 183.800781 147.933594 183.855469 147.953125 183.933594 147.972656 L 184.359375 148.128906 C 184.648438 148.222656 184.9375 148.339844 185.226562 148.417969 C 185.515625 148.511719 185.804688 148.589844 186.113281 148.667969 L 186.554688 148.78125 C 186.632812 148.800781 186.710938 148.820312 186.769531 148.820312 L 186.980469 148.859375 C 187.578125 148.972656 188.15625 149.050781 188.753906 149.070312 C 189.332031 149.089844 189.929688 149.070312 190.488281 148.972656 C 191.046875 148.878906 191.589844 148.703125 192.089844 148.472656 L 192.28125 148.378906 L 192.378906 148.339844 C 192.417969 148.320312 192.4375 148.300781 192.476562 148.28125 C 192.53125 148.242188 192.570312 148.222656 192.628906 148.183594 C 192.667969 148.148438 192.707031 148.128906 192.746094 148.089844 C 192.820312 148.03125 192.878906 147.953125 192.917969 147.894531 C 192.957031 147.839844 192.996094 147.761719 193.015625 147.703125 C 193.035156 147.625 193.054688 147.570312 193.054688 147.492188 C 193.054688 147.414062 193.054688 147.320312 193.015625 147.222656 C 192.996094 147.125 192.957031 147.011719 192.917969 146.894531 L 192.878906 146.816406 L 192.839844 146.722656 C 192.804688 146.664062 192.785156 146.605469 192.746094 146.550781 C 192.609375 146.296875 192.457031 146.046875 192.28125 145.796875 C 192.109375 145.546875 191.933594 145.296875 191.742188 145.046875 L 190.605469 143.507812 C 190.414062 143.238281 190.21875 142.988281 190.046875 142.71875 C 189.851562 142.449219 189.679688 142.179688 189.488281 141.910156 C 189.3125 141.640625 189.140625 141.351562 188.945312 141.082031 C 188.871094 140.949219 188.773438 140.792969 188.695312 140.660156 L 188.5625 140.445312 L 188.503906 140.3125 C 188.175781 139.753906 187.867188 139.175781 187.578125 138.578125 C 187.289062 138.003906 187 137.40625 186.75 136.808594 C 186.5 136.210938 186.265625 135.597656 186.054688 134.980469 C 185.863281 134.363281 185.667969 133.730469 185.515625 133.09375 C 185.359375 132.457031 185.226562 131.824219 185.128906 131.1875 C 185.015625 130.554688 184.9375 129.917969 184.878906 129.261719 C 184.859375 129.109375 184.976562 128.992188 185.128906 128.972656 C 185.246094 128.953125 185.359375 129.03125 185.398438 129.148438 C 185.632812 129.746094 185.84375 130.339844 186.054688 130.9375 C 186.265625 131.535156 186.480469 132.132812 186.710938 132.726562 C 186.769531 132.882812 186.828125 133.015625 186.882812 133.171875 C 186.941406 133.324219 187 133.460938 187.058594 133.613281 L 187.132812 133.824219 L 187.230469 134.035156 L 187.40625 134.480469 C 187.636719 135.058594 187.886719 135.632812 188.15625 136.191406 C 188.214844 136.328125 188.292969 136.480469 188.347656 136.617188 L 188.542969 137.039062 C 188.621094 137.175781 188.675781 137.328125 188.753906 137.464844 L 188.964844 137.886719 C 189.253906 138.445312 189.5625 138.984375 189.890625 139.523438 L 190.007812 139.714844 L 190.121094 139.90625 C 190.199219 140.042969 190.296875 140.175781 190.375 140.3125 C 190.546875 140.582031 190.71875 140.832031 190.894531 141.082031 C 191.066406 141.332031 191.261719 141.601562 191.433594 141.851562 C 191.625 142.101562 191.800781 142.351562 191.992188 142.601562 L 193.148438 144.125 C 193.34375 144.394531 193.535156 144.644531 193.726562 144.933594 C 193.921875 145.203125 194.113281 145.488281 194.289062 145.816406 C 194.324219 145.894531 194.363281 145.972656 194.421875 146.066406 L 194.480469 146.203125 L 194.519531 146.261719 L 194.539062 146.335938 C 194.613281 146.511719 194.691406 146.703125 194.730469 146.914062 C 194.789062 147.125 194.808594 147.355469 194.808594 147.589844 C 194.808594 147.839844 194.769531 148.089844 194.691406 148.320312 C 194.613281 148.550781 194.5 148.78125 194.363281 148.972656 C 194.230469 149.167969 194.074219 149.339844 193.902344 149.476562 C 193.824219 149.550781 193.726562 149.609375 193.652344 149.667969 C 193.574219 149.726562 193.476562 149.78125 193.402344 149.839844 C 193.363281 149.859375 193.324219 149.878906 193.285156 149.898438 L 193.167969 149.957031 C 193.09375 149.996094 193.015625 150.03125 192.917969 150.089844 C 192.261719 150.417969 191.570312 150.628906 190.875 150.746094 C 190.179688 150.859375 189.46875 150.917969 188.773438 150.878906 C 188.078125 150.859375 187.40625 150.765625 186.730469 150.628906 L 186.480469 150.570312 C 186.402344 150.550781 186.304688 150.535156 186.230469 150.515625 L 185.746094 150.398438 C 185.417969 150.300781 185.089844 150.226562 184.78125 150.128906 C 184.453125 150.03125 184.144531 149.917969 183.839844 149.820312 L 183.375 149.648438 C 183.296875 149.609375 183.222656 149.589844 183.144531 149.550781 L 182.914062 149.457031 C 182.296875 149.207031 181.699219 148.9375 181.121094 148.648438 C 179.945312 148.070312 178.804688 147.433594 177.6875 146.742188 C 176.589844 146.066406 175.507812 145.335938 174.449219 144.585938 C 174.179688 144.394531 173.929688 144.199219 173.660156 144.007812 C 173.601562 143.96875 173.523438 143.910156 173.464844 143.855469 L 173.273438 143.699219 L 172.886719 143.390625 L 172.789062 143.316406 C 172.753906 143.296875 172.734375 143.257812 172.695312 143.238281 L 172.5 143.085938 L 172.117188 142.777344 C 171.980469 142.679688 171.867188 142.5625 171.75 142.449219 L 171.382812 142.121094 L 171.289062 142.042969 L 171.191406 141.96875 L 171.015625 141.792969 L 170.652344 141.46875 C 170.59375 141.410156 170.535156 141.351562 170.476562 141.292969 L 169.957031 140.773438 L 169.609375 140.410156 C 169.496094 140.292969 169.378906 140.175781 169.28125 140.042969 L 168.953125 139.675781 C 168.839844 139.5625 168.742188 139.425781 168.625 139.3125 C 168.414062 139.0625 168.203125 138.8125 168.007812 138.542969 L 167.703125 138.15625 L 167.410156 137.753906 L 167.257812 137.558594 C 167.199219 137.5 167.160156 137.425781 167.121094 137.367188 L 166.832031 136.960938 C 166.738281 136.828125 166.660156 136.691406 166.5625 136.558594 C 166.46875 136.421875 166.390625 136.289062 166.292969 136.152344 L 166.023438 135.730469 C 165.945312 135.597656 165.851562 135.441406 165.773438 135.308594 L 165.65625 135.09375 L 165.542969 134.882812 L 165.425781 134.671875 C 165.386719 134.59375 165.347656 134.539062 165.3125 134.460938 L 165.078125 134.019531 C 165.003906 133.863281 164.945312 133.730469 164.867188 133.574219 C 164.789062 133.421875 164.730469 133.265625 164.675781 133.132812 L 164.480469 132.671875 C 164.230469 132.054688 164.039062 131.4375 163.863281 130.804688 C 163.789062 130.476562 163.710938 130.167969 163.652344 129.839844 C 163.613281 129.6875 163.59375 129.511719 163.574219 129.359375 C 163.554688 129.28125 163.554688 129.1875 163.535156 129.109375 L 163.519531 128.972656 L 163.519531 128.839844 C 163.5 128.648438 163.652344 128.472656 163.84375 128.472656 C 164 128.453125 164.132812 128.550781 164.191406 128.6875 Z M 164.132812 128.742188 " fill-opacity="1" fill-rule="nonzero"/><path fill="#8de1ff" d="M 186.035156 63.140625 C 186.382812 63.140625 187.269531 60.351562 186.113281 57.886719 C 185.804688 57.230469 185.207031 55.960938 183.855469 55.558594 C 182.546875 55.171875 180.773438 55.671875 180.445312 56.710938 C 180.097656 57.789062 181.371094 59.136719 182.335938 59.753906 C 183.546875 60.542969 184.378906 60.195312 185.1875 61.082031 C 186.035156 62.007812 185.824219 63.140625 186.035156 63.140625 Z M 186.035156 63.140625 " fill-opacity="1" fill-rule="nonzero"/><path fill="#8de1ff" d="M 205.699219 73.921875 C 204.292969 78.964844 197.835938 75.632812 197.835938 75.632812 C 185.359375 79.042969 182.199219 94.808594 182.199219 94.808594 L 178.324219 91.9375 C 179.382812 89.6875 179.886719 87.125 180.058594 84.664062 C 180.464844 78.886719 179.074219 73.574219 179.074219 73.574219 C 179.074219 73.574219 176.261719 73.054688 175.742188 70.6875 C 175.21875 68.320312 176.105469 65.796875 180.40625 65.507812 C 184.707031 65.222656 185.667969 72.113281 185.667969 72.113281 C 187.078125 64.777344 192.109375 60.484375 198.953125 58.695312 C 206.664062 56.695312 208.476562 64.277344 201.207031 65.625 C 193.980469 66.953125 191.800781 70.804688 191.761719 70.859375 C 191.78125 70.839844 193.285156 69.820312 197.46875 68.859375 C 200.476562 68.164062 204.101562 68.492188 205.410156 70.570312 C 205.949219 71.363281 206.105469 72.476562 205.699219 73.921875 Z M 205.699219 73.921875 " fill-opacity="1" fill-rule="nonzero"/><path fill="#192544" d="M 205.699219 73.921875 C 204.292969 78.964844 197.835938 75.632812 197.835938 75.632812 C 185.359375 79.042969 182.199219 94.808594 182.199219 94.808594 L 178.324219 91.9375 C 179.382812 89.6875 179.886719 87.125 180.058594 84.664062 C 180.136719 84.757812 180.214844 84.855469 180.308594 84.953125 C 180.617188 85.277344 180.984375 85.605469 181.429688 85.664062 C 182.277344 85.777344 182.914062 84.96875 183.375 84.238281 C 184.9375 81.773438 186.460938 79.234375 188.582031 77.195312 C 190.683594 75.171875 193.515625 73.691406 196.425781 73.863281 C 198.761719 74 201.132812 74.539062 203.058594 73.246094 C 204.082031 72.574219 204.871094 71.628906 205.410156 70.535156 C 205.949219 71.363281 206.105469 72.476562 205.699219 73.921875 Z M 205.699219 73.921875 " fill-opacity="0.32" fill-rule="nonzero"/><path fill="#192544" d="M 182.199219 95.558594 C 182.046875 95.558594 181.871094 95.5 181.738281 95.402344 L 177.863281 92.535156 C 177.570312 92.324219 177.476562 91.917969 177.628906 91.59375 C 179.402344 87.839844 179.5 83.21875 179.269531 79.984375 C 179.074219 77.269531 178.632812 75.078125 178.421875 74.171875 C 177.457031 73.882812 175.453125 73.015625 174.96875 70.824219 C 174.621094 69.242188 174.875 67.839844 175.664062 66.78125 C 176.589844 65.546875 178.152344 64.855469 180.328125 64.699219 C 181.792969 64.605469 183.855469 65.144531 185.324219 68.339844 C 185.4375 68.589844 185.554688 68.859375 185.648438 69.109375 C 186.519531 66.625 187.886719 64.488281 189.71875 62.71875 C 192.03125 60.484375 195.078125 58.847656 198.742188 57.90625 C 200.226562 57.519531 201.59375 57.445312 202.789062 57.675781 C 203.90625 57.886719 204.851562 58.386719 205.527344 59.097656 C 206.472656 60.101562 206.78125 61.46875 206.355469 62.738281 C 206.066406 63.585938 205.488281 64.355469 204.660156 64.96875 C 203.773438 65.625 202.65625 66.066406 201.324219 66.316406 C 198.527344 66.835938 196.542969 67.742188 195.210938 68.570312 C 195.808594 68.398438 196.503906 68.222656 197.277344 68.03125 C 198.796875 67.683594 200.398438 67.609375 201.785156 67.78125 C 203.425781 67.992188 204.71875 68.570312 205.566406 69.457031 C 206.316406 70.246094 207.089844 71.707031 206.433594 74.09375 C 206.027344 75.539062 205.21875 76.539062 204.023438 77.058594 C 203.386719 77.347656 202.671875 77.445312 201.980469 77.445312 C 200.1875 77.445312 198.414062 76.730469 197.738281 76.425781 C 192.917969 77.828125 188.964844 81.3125 186.015625 86.800781 C 183.742188 91.015625 182.933594 94.882812 182.933594 94.921875 C 182.875 95.171875 182.699219 95.382812 182.449219 95.480469 C 182.390625 95.539062 182.296875 95.558594 182.199219 95.558594 Z M 179.289062 91.6875 L 181.738281 93.496094 C 182.140625 91.976562 183.046875 89.167969 184.6875 86.144531 C 186.09375 83.546875 187.75 81.3125 189.621094 79.523438 C 191.972656 77.269531 194.691406 75.710938 197.660156 74.902344 C 197.855469 74.84375 198.046875 74.863281 198.21875 74.960938 C 198.257812 74.980469 201.421875 76.578125 203.464844 75.691406 C 204.214844 75.363281 204.71875 74.730469 204.988281 73.730469 C 205.371094 72.382812 205.199219 71.304688 204.484375 70.570312 C 203.886719 69.9375 202.886719 69.511719 201.613281 69.359375 C 200.398438 69.207031 198.992188 69.28125 197.660156 69.589844 C 193.746094 70.476562 192.28125 71.4375 192.222656 71.476562 C 191.933594 71.6875 191.53125 71.667969 191.261719 71.417969 C 190.992188 71.1875 190.933594 70.785156 191.105469 70.476562 C 191.203125 70.300781 193.535156 66.242188 201.09375 64.855469 C 203.097656 64.488281 204.542969 63.527344 204.949219 62.3125 C 205.199219 61.5625 205.027344 60.792969 204.464844 60.195312 C 203.464844 59.117188 201.476562 58.832031 199.183594 59.425781 C 192.128906 61.253906 187.730469 65.683594 186.460938 72.226562 C 186.382812 72.59375 186.074219 72.84375 185.707031 72.84375 C 185.707031 72.84375 185.6875 72.84375 185.6875 72.84375 C 185.304688 72.84375 184.996094 72.554688 184.9375 72.1875 C 184.9375 72.132812 184.011719 66.011719 180.484375 66.261719 C 178.765625 66.375 177.570312 66.875 176.9375 67.722656 C 176.261719 68.609375 176.339844 69.726562 176.511719 70.515625 C 176.917969 72.34375 179.210938 72.804688 179.25 72.804688 C 179.539062 72.863281 179.769531 73.074219 179.847656 73.363281 C 179.886719 73.480469 180.578125 76.171875 180.832031 79.851562 C 180.984375 82.007812 180.945312 84.066406 180.734375 85.953125 C 180.464844 88.089844 179.980469 90.015625 179.289062 91.6875 Z M 179.289062 91.6875 " fill-opacity="1" fill-rule="nonzero"/><path fill="#192544" d="M 192.207031 71.4375 L 189.351562 72.921875 C 189.199219 72.996094 189.003906 72.941406 188.925781 72.785156 C 188.871094 72.652344 188.890625 72.496094 188.984375 72.402344 L 191.316406 70.1875 C 191.625 69.898438 192.128906 69.898438 192.417969 70.207031 C 192.707031 70.515625 192.707031 71.015625 192.398438 71.304688 C 192.320312 71.363281 192.261719 71.398438 192.207031 71.4375 Z M 192.207031 71.4375 " fill-opacity="1" fill-rule="nonzero"/><path fill="#192544" d="M 197.371094 76.25 C 197.351562 76.230469 197.332031 76.210938 197.3125 76.210938 C 197.292969 76.191406 197.277344 76.191406 197.277344 76.171875 C 197.238281 76.15625 197.21875 76.117188 197.179688 76.097656 C 197.121094 76.039062 197.0625 75.980469 197.003906 75.941406 C 196.949219 75.886719 196.890625 75.828125 196.851562 75.769531 C 196.792969 75.710938 196.753906 75.652344 196.695312 75.597656 C 196.503906 75.363281 196.332031 75.09375 196.15625 74.84375 C 196.082031 74.710938 196.003906 74.574219 195.925781 74.441406 C 195.847656 74.304688 195.792969 74.152344 195.734375 74.019531 C 195.675781 73.863281 195.636719 73.730469 195.597656 73.574219 C 195.558594 73.421875 195.539062 73.265625 195.519531 73.113281 C 195.5 72.960938 195.617188 72.824219 195.773438 72.824219 C 195.867188 72.804688 195.984375 72.863281 196.023438 72.960938 L 196.023438 72.976562 C 196.097656 73.09375 196.175781 73.191406 196.253906 73.304688 C 196.332031 73.402344 196.40625 73.515625 196.503906 73.613281 C 196.679688 73.804688 196.871094 73.980469 197.0625 74.152344 C 197.257812 74.324219 197.46875 74.480469 197.679688 74.632812 L 197.988281 74.863281 L 198.277344 75.078125 C 198.625 75.328125 198.703125 75.808594 198.433594 76.15625 C 198.21875 76.425781 197.738281 76.5 197.371094 76.25 C 197.390625 76.25 197.390625 76.25 197.371094 76.25 Z M 197.371094 76.25 " fill-opacity="1" fill-rule="nonzero"/><path fill="#192544" d="M 179.074219 72.785156 L 181.523438 73.230469 C 181.71875 73.265625 181.832031 73.441406 181.792969 73.613281 C 181.773438 73.75 181.660156 73.863281 181.523438 73.882812 L 179.074219 74.324219 C 178.652344 74.402344 178.246094 74.113281 178.167969 73.691406 C 178.09375 73.265625 178.382812 72.863281 178.804688 72.785156 C 178.882812 72.765625 178.980469 72.765625 179.074219 72.785156 Z M 179.074219 72.785156 " fill-opacity="1" fill-rule="nonzero"/><g clip-path="url(#94916c4813)"><path fill="#192544" d="M 186.035156 63.910156 C 185.726562 63.910156 185.359375 63.738281 185.207031 63.257812 C 185.167969 63.140625 185.148438 63.027344 185.128906 62.871094 C 185.070312 62.507812 184.996094 62.007812 184.609375 61.5625 C 184.320312 61.253906 184.03125 61.179688 183.566406 61.042969 C 183.125 60.929688 182.546875 60.773438 181.910156 60.351562 C 181.292969 59.964844 180.675781 59.386719 180.269531 58.8125 C 179.671875 57.984375 179.480469 57.15625 179.710938 56.425781 C 179.945312 55.710938 180.617188 55.113281 181.542969 54.828125 C 182.371094 54.558594 183.277344 54.558594 184.070312 54.789062 C 185.746094 55.289062 186.460938 56.808594 186.808594 57.539062 C 187.925781 59.90625 187.367188 62.5625 186.84375 63.390625 C 186.59375 63.835938 186.265625 63.910156 186.035156 63.910156 C 186.054688 63.910156 186.035156 63.910156 186.035156 63.910156 Z M 182.914062 56.191406 C 182.101562 56.191406 181.3125 56.539062 181.175781 56.945312 C 181.003906 57.484375 181.890625 58.542969 182.757812 59.097656 C 183.203125 59.386719 183.585938 59.484375 183.992188 59.601562 C 184.550781 59.753906 185.167969 59.90625 185.765625 60.5625 C 185.824219 60.621094 185.882812 60.699219 185.921875 60.753906 C 185.9375 60.003906 185.824219 59.097656 185.417969 58.214844 C 185.148438 57.65625 184.667969 56.597656 183.625 56.289062 C 183.394531 56.210938 183.144531 56.191406 182.914062 56.191406 Z M 182.914062 56.191406 " fill-opacity="1" fill-rule="nonzero"/></g><path fill="#5aa0e5" d="M 235.390625 78.597656 C 234.871094 81.410156 233.695312 83.429688 232.921875 84.527344 C 232.285156 85.375 231.167969 86.625 229.453125 87.683594 C 228.007812 88.589844 226.65625 89.03125 225.691406 89.261719 C 226.945312 91.746094 229.550781 97.753906 228.914062 105.625 C 228.894531 105.796875 228.875 105.972656 228.875 106.144531 C 228.257812 112.34375 225.847656 117.136719 223.707031 120.292969 C 223.628906 120.425781 223.535156 120.542969 223.457031 120.660156 C 222.339844 122.257812 221.335938 123.390625 220.71875 124.066406 C 216.882812 127.609375 210.945312 132.285156 202.769531 135.960938 C 192.070312 140.773438 186.882812 141.023438 176.570312 142.796875 C 171.074219 143.605469 166.101562 143.296875 158.738281 142.277344 C 152.777344 141.449219 147.941406 139.792969 144.429688 138.273438 C 142.984375 137.558594 140.84375 136.328125 138.648438 134.324219 C 137.992188 133.730469 137.316406 133.054688 136.660156 132.304688 C 136.605469 132.246094 136.566406 132.1875 136.507812 132.132812 C 133.617188 128.761719 131.804688 124.585938 131.261719 120.175781 L 130.820312 116.5 L 130.683594 115.363281 L 130.648438 115.019531 C 130.433594 111.648438 130.511719 105.316406 133.519531 98.234375 C 134.367188 96.230469 135.332031 94.441406 136.335938 92.863281 C 139.804688 87.394531 145.453125 83.660156 151.875 82.757812 C 151.949219 82.738281 152.046875 82.738281 152.125 82.71875 C 152.199219 82.699219 152.277344 82.699219 152.355469 82.679688 C 157.792969 81.988281 163.304688 82.46875 168.550781 84.085938 C 171.902344 85.125 175.355469 86.550781 179.730469 89.339844 C 179.925781 89.476562 180.136719 89.589844 180.328125 89.726562 C 184.820312 92.691406 187.925781 96.039062 189.929688 98.597656 C 190.238281 98.984375 190.507812 99.367188 190.777344 99.714844 C 190.816406 99.773438 190.875 99.851562 190.914062 99.90625 C 191.742188 101.253906 193.691406 103.96875 197.238281 105.835938 C 201.304688 107.972656 205.257812 107.800781 207.320312 107.511719 C 207.976562 107.414062 208.632812 107.339844 209.304688 107.261719 C 209.710938 107.222656 210.097656 107.164062 210.480469 107.070312 C 213.199219 106.453125 215.550781 104.738281 216.921875 102.277344 C 217.5 101.21875 217.828125 100.175781 217.980469 99.175781 C 218.5 95.789062 217.035156 93.015625 216.921875 92.804688 C 215.457031 93.460938 212.816406 94.421875 209.402344 94.382812 C 206.761719 94.363281 204.621094 93.765625 203.214844 93.226562 C 203.097656 93.191406 202.980469 93.132812 202.867188 93.09375 C 201.59375 92.707031 199.800781 92.015625 197.910156 90.726562 C 197.410156 90.378906 196.96875 90.03125 196.542969 89.667969 C 196.3125 89.476562 196.097656 89.28125 195.886719 89.089844 C 194.789062 88.050781 194 87.050781 193.457031 86.28125 C 194.460938 85.238281 196.273438 83.605469 198.992188 82.429688 C 201.402344 81.390625 203.578125 81.101562 205.121094 81.042969 C 205.777344 81.023438 206.433594 80.964844 207.089844 80.910156 C 208.632812 80.734375 211.023438 80.734375 213.625 81.738281 C 215.476562 82.449219 216.863281 83.429688 217.75 84.199219 C 217.789062 84.238281 217.828125 84.277344 217.867188 84.296875 C 217.867188 84.296875 217.867188 84.277344 217.867188 84.277344 C 217.710938 83.566406 217.269531 80.964844 218.753906 78.273438 C 220.101562 75.828125 222.222656 74.808594 222.917969 74.519531 C 224.476562 73.535156 226.851562 72.324219 229.933594 71.648438 C 231.34375 71.34375 232.652344 71.207031 233.789062 71.167969 C 234.175781 71.148438 234.542969 71.148438 234.890625 71.148438 C 235.023438 71.59375 235.199219 72.207031 235.351562 72.941406 C 235.640625 74.421875 235.796875 76.367188 235.390625 78.597656 Z M 235.390625 78.597656 " fill-opacity="1" fill-rule="nonzero"/><path fill="#ffffff" d="M 189.890625 98.617188 C 184.9375 95.75 179.269531 90.167969 172.464844 87.839844 C 163.34375 84.71875 156.65625 84.429688 153.085938 84.585938 C 152.164062 84.625 150.949219 84.855469 149.558594 85.316406 C 149.578125 85.316406 149.578125 85.316406 149.597656 85.316406 C 150.234375 85.375 150.984375 85.742188 150.984375 86.375 C 150.984375 86.78125 150.695312 87.105469 150.425781 87.375 C 148.421875 89.300781 145.511719 90.785156 142.832031 91.476562 C 142.328125 91.613281 141.730469 91.574219 141.367188 91.207031 C 141.230469 91.074219 141.152344 90.9375 141.097656 90.804688 C 139.515625 92.402344 137.992188 94.382812 136.605469 96.789062 C 131.339844 106.046875 132.824219 115.5 132.824219 115.5 C 132.824219 115.5 131.996094 115.902344 130.78125 116.480469 L 130.648438 115.347656 L 130.609375 115 C 130.394531 111.628906 130.472656 105.296875 133.480469 98.214844 C 134.328125 96.210938 135.292969 94.421875 136.296875 92.84375 C 139.765625 87.375 145.414062 83.640625 151.835938 82.738281 C 151.910156 82.71875 152.007812 82.71875 152.085938 82.699219 C 152.164062 82.679688 152.238281 82.679688 152.316406 82.660156 C 157.753906 81.96875 163.265625 82.449219 168.511719 84.066406 C 171.867188 85.105469 175.316406 86.53125 179.691406 89.320312 C 184.492188 92.421875 187.789062 95.941406 189.890625 98.617188 Z M 189.890625 98.617188 " fill-opacity="0.5" fill-rule="nonzero"/><path fill="#ffffff" d="M 213.625 81.757812 C 215.476562 82.46875 216.863281 83.449219 217.75 84.21875 C 215.765625 82.601562 213.105469 81.988281 210.539062 82.007812 C 207.917969 82.027344 205.351562 82.660156 202.808594 83.277344 C 201.363281 83.625 199.898438 83.988281 198.605469 84.738281 C 197.3125 85.492188 196.214844 86.683594 195.945312 88.148438 C 195.886719 88.472656 195.867188 88.800781 195.886719 89.109375 C 194.789062 88.070312 194 87.070312 193.457031 86.296875 C 194.460938 85.257812 196.273438 83.625 198.992188 82.449219 C 201.402344 81.410156 203.578125 81.121094 205.121094 81.0625 C 205.777344 81.042969 206.433594 80.984375 207.089844 80.929688 C 208.632812 80.753906 211.003906 80.753906 213.625 81.757812 Z M 213.625 81.757812 " fill-opacity="0.5" fill-rule="nonzero"/><path fill="#ffffff" d="M 235.351562 72.976562 C 232.808594 73.265625 230.28125 73.730469 227.871094 74.59375 C 223.320312 76.230469 219.082031 79.636719 217.867188 84.296875 C 217.710938 83.585938 217.269531 80.984375 218.753906 78.292969 C 220.101562 75.847656 222.222656 74.828125 222.917969 74.539062 C 224.476562 73.554688 226.851562 72.34375 229.933594 71.667969 C 231.34375 71.363281 232.652344 71.226562 233.789062 71.1875 C 234.175781 71.167969 234.542969 71.167969 234.890625 71.167969 C 235.042969 71.628906 235.21875 72.226562 235.351562 72.976562 Z M 235.351562 72.976562 " fill-opacity="0.5" fill-rule="nonzero"/><path fill="#192544" d="M 219.003906 101.738281 C 217.941406 103.875 216.148438 105.664062 213.933594 106.53125 C 212.832031 106.972656 211.621094 107.164062 210.441406 107.089844 C 213.160156 106.472656 215.511719 104.757812 216.882812 102.292969 C 217.460938 101.234375 217.789062 100.195312 217.941406 99.195312 C 218.464844 95.808594 217 93.035156 216.882812 92.824219 C 215.417969 93.480469 212.777344 94.441406 209.363281 94.402344 C 206.722656 94.382812 204.582031 93.785156 203.175781 93.246094 C 205.949219 93.226562 208.726562 92.671875 211.347656 91.707031 C 212.46875 91.285156 213.605469 90.785156 214.414062 89.898438 C 215.222656 89.011719 215.667969 87.683594 215.1875 86.585938 C 216.746094 87.242188 218 88.492188 218.828125 89.976562 C 219.660156 91.4375 220.082031 93.113281 220.21875 94.789062 C 220.429688 97.15625 220.0625 99.601562 219.003906 101.738281 Z M 219.003906 101.738281 " fill-opacity="0.32" fill-rule="nonzero"/><path fill="#192544" d="M 235.390625 78.597656 C 234.871094 81.410156 233.695312 83.429688 232.921875 84.527344 C 232.285156 85.375 231.167969 86.625 229.453125 87.683594 C 228.007812 88.589844 226.65625 89.03125 225.691406 89.261719 C 226.945312 91.746094 229.550781 97.753906 228.914062 105.625 C 227.449219 99.273438 225.191406 93.09375 222.222656 87.28125 C 227.640625 86.703125 231.996094 81.96875 233.308594 76.710938 C 233.75 74.902344 233.90625 73.054688 233.808594 71.1875 C 234.195312 71.167969 234.5625 71.167969 234.910156 71.167969 C 235.3125 72.515625 236.007812 75.230469 235.390625 78.597656 Z M 235.390625 78.597656 " fill-opacity="0.32" fill-rule="nonzero"/><path fill="#aedaff" d="M 223.6875 120.3125 C 222.472656 122.101562 221.355469 123.371094 220.699219 124.085938 C 218.230469 126.375 214.878906 129.128906 210.636719 131.785156 C 210.097656 132.132812 209.535156 132.457031 208.957031 132.804688 C 207.050781 133.921875 204.988281 135 202.75 136 C 194.558594 139.695312 189.601562 140.695312 183.085938 141.773438 C 182.527344 141.871094 181.96875 141.949219 181.390625 142.042969 C 179.886719 142.292969 178.285156 142.546875 176.550781 142.832031 C 172 143.507812 167.777344 143.410156 162.285156 142.777344 C 161.6875 142.699219 161.070312 142.621094 160.433594 142.546875 C 159.875 142.46875 159.316406 142.390625 158.71875 142.3125 C 152.761719 141.484375 147.921875 139.832031 144.410156 138.308594 C 143.640625 137.925781 142.695312 137.40625 141.636719 136.710938 C 141.171875 136.40625 140.691406 136.078125 140.210938 135.691406 C 139.050781 134.808594 137.820312 133.691406 136.640625 132.34375 C 136.585938 132.285156 136.546875 132.226562 136.488281 132.167969 C 133.597656 128.800781 131.785156 124.625 131.246094 120.214844 L 130.648438 115.402344 C 131.898438 114.691406 133.382812 114.382812 134.832031 114.25 C 134.984375 114.230469 135.15625 114.210938 135.3125 114.210938 C 135.5625 114.191406 135.832031 114.171875 136.082031 114.171875 C 137.566406 114.113281 139.070312 114.191406 140.554688 114.363281 C 140.824219 114.402344 141.097656 114.441406 141.367188 114.480469 C 143.796875 114.824219 146.222656 115.402344 148.613281 115.980469 C 148.886719 116.058594 149.175781 116.117188 149.464844 116.191406 C 149.808594 116.269531 150.15625 116.367188 150.503906 116.441406 C 154.417969 117.386719 158.371094 118.214844 162.378906 118.003906 C 163.035156 117.964844 163.691406 117.90625 164.347656 117.808594 C 164.636719 117.769531 164.945312 117.734375 165.234375 117.675781 C 169.070312 117.019531 172.945312 115.382812 174.988281 112.285156 C 174.910156 114.882812 176.53125 117.328125 178.632812 118.867188 C 180.734375 120.425781 183.277344 121.253906 185.765625 122.023438 C 190.703125 123.546875 195.695312 124.96875 200.824219 125.585938 C 205.949219 126.203125 211.253906 125.972656 216.128906 124.277344 C 218.847656 123.296875 221.355469 121.929688 223.6875 120.3125 Z M 223.6875 120.3125 " fill-opacity="1" fill-rule="nonzero"/><path fill="#5aa0e5" d="M 210.636719 131.765625 C 210.097656 132.113281 209.535156 132.4375 208.957031 132.785156 C 206.703125 133.074219 204.503906 133.246094 202.363281 133.304688 C 201.730469 133.324219 201.09375 133.34375 200.457031 133.34375 C 197.949219 133.34375 195.5 133.191406 193.128906 132.902344 C 186.84375 132.113281 180.734375 130.109375 175.472656 127.105469 C 172.714844 125.546875 170.207031 123.71875 167.992188 121.660156 C 166.679688 120.445312 165.464844 119.136719 164.386719 117.769531 C 164.675781 117.734375 164.984375 117.695312 165.273438 117.636719 C 171.632812 125.355469 181.773438 130.667969 193.226562 132.113281 C 198.664062 132.804688 204.429688 132.6875 210.636719 131.765625 Z M 210.636719 131.765625 " fill-opacity="1" fill-rule="nonzero"/><path fill="#5aa0e5" d="M 183.066406 141.753906 C 182.507812 141.851562 181.949219 141.929688 181.371094 142.023438 C 178.804688 141.179688 176.320312 140.15625 173.910156 138.964844 C 163.769531 133.960938 155.152344 125.914062 149.464844 116.15625 C 149.808594 116.230469 150.15625 116.328125 150.503906 116.40625 C 156.132812 125.742188 164.460938 133.441406 174.257812 138.273438 C 177.089844 139.675781 180.039062 140.832031 183.066406 141.753906 Z M 183.066406 141.753906 " fill-opacity="1" fill-rule="nonzero"/><path fill="#5aa0e5" d="M 162.285156 142.757812 C 161.6875 142.679688 161.070312 142.601562 160.433594 142.527344 C 156.980469 140.292969 153.839844 137.578125 151.0625 134.460938 C 148.191406 131.246094 145.800781 127.683594 143.929688 123.875 C 142.425781 120.792969 141.308594 117.578125 140.574219 114.324219 C 140.84375 114.363281 141.117188 114.402344 141.386719 114.441406 C 144.085938 126.105469 151.96875 136.578125 162.285156 142.757812 Z M 162.285156 142.757812 " fill-opacity="1" fill-rule="nonzero"/><path fill="#192544" d="M 222.394531 122.140625 C 222.125 122.5625 221.835938 122.96875 221.527344 123.390625 C 220.929688 124.199219 220.292969 124.488281 219.542969 125.125 C 218.558594 125.953125 217.597656 126.800781 216.574219 127.609375 C 214.046875 129.589844 211.386719 131.398438 208.613281 132.996094 C 206.703125 134.09375 204.738281 135.09375 202.730469 136 C 192.03125 140.8125 186.84375 141.0625 176.53125 142.832031 C 171.035156 143.640625 166.0625 143.335938 158.699219 142.3125 C 152.742188 141.484375 147.902344 139.832031 144.394531 138.308594 C 142.945312 137.597656 140.808594 136.367188 138.609375 134.363281 C 141.191406 135.5 143.988281 136.269531 146.726562 136.808594 C 154.476562 138.308594 162.496094 138.425781 170.285156 137.15625 C 174.023438 136.539062 177.84375 135.558594 180.90625 133.324219 C 183.972656 131.089844 186.191406 127.375 185.746094 123.605469 C 189.410156 126.972656 194.558594 128.417969 199.550781 128.339844 C 201.304688 128.320312 203.328125 128.242188 204.792969 127.144531 C 205.429688 126.664062 205.914062 125.894531 205.835938 125.085938 C 212.757812 123.796875 219.425781 121.121094 225.289062 117.230469 C 224.960938 117.464844 224.652344 118.367188 224.441406 118.734375 C 224.132812 119.273438 223.824219 119.792969 223.515625 120.3125 C 223.167969 120.949219 222.78125 121.542969 222.394531 122.140625 Z M 222.394531 122.140625 " fill-opacity="0.32" fill-rule="nonzero"/><path fill="#5aa0e5" d="M 141.636719 136.691406 C 141.171875 136.386719 140.691406 136.058594 140.210938 135.671875 C 139.957031 135.152344 139.707031 134.632812 139.457031 134.09375 C 136.566406 127.742188 135.15625 120.890625 135.3125 114.171875 C 135.5625 114.152344 135.832031 114.132812 136.082031 114.132812 C 135.910156 121.929688 137.914062 129.800781 141.636719 136.691406 Z M 141.636719 136.691406 " fill-opacity="1" fill-rule="nonzero"/><g clip-path="url(#cf75235ccc)"><path fill="#192544" d="M 170.167969 144.046875 C 166.640625 144.046875 162.976562 143.660156 158.601562 143.066406 C 153.609375 142.371094 148.730469 141.003906 144.105469 139.003906 C 144.085938 139.003906 144.085938 138.984375 144.066406 138.984375 C 141 137.464844 138.300781 135.402344 136.0625 132.824219 C 136.007812 132.765625 135.949219 132.707031 135.910156 132.632812 C 132.921875 129.148438 131.050781 124.875 130.492188 120.273438 L 129.855469 115.132812 C 129.855469 115.113281 129.855469 115.09375 129.855469 115.09375 C 129.507812 109.242188 130.511719 103.316406 132.785156 97.964844 C 133.597656 96.078125 134.558594 94.230469 135.660156 92.496094 C 137.414062 89.707031 139.804688 87.300781 142.5625 85.507812 C 145.355469 83.679688 148.460938 82.507812 151.757812 82.042969 C 151.835938 82.027344 151.929688 82.027344 152.007812 82.007812 C 152.085938 81.988281 152.164062 81.988281 152.238281 81.96875 C 154.996094 81.621094 157.792969 81.5625 160.566406 81.792969 C 163.324219 82.042969 166.082031 82.582031 168.742188 83.390625 C 172.734375 84.625 176.222656 86.261719 180.097656 88.722656 C 184.570312 91.554688 188.386719 95.191406 191.492188 99.484375 C 191.511719 99.503906 191.511719 99.523438 191.53125 99.523438 C 192.570312 101.199219 194.460938 103.546875 197.566406 105.183594 C 201.246094 107.105469 204.832031 107.105469 207.183594 106.78125 C 207.898438 106.683594 208.554688 106.605469 209.191406 106.53125 C 212.160156 106.222656 214.78125 104.507812 216.207031 101.929688 C 218.078125 98.542969 217.054688 95.171875 216.496094 93.804688 C 214.222656 94.710938 211.773438 95.171875 209.34375 95.152344 C 207.011719 95.132812 204.738281 94.691406 202.558594 93.824219 C 200.726562 93.265625 198.992188 92.4375 197.429688 91.359375 C 195.617188 90.109375 194.054688 88.550781 192.785156 86.722656 C 192.570312 86.414062 192.609375 86.011719 192.859375 85.761719 C 194.519531 84.027344 196.464844 82.679688 198.644531 81.738281 C 200.957031 80.734375 203.558594 80.140625 206.183594 79.964844 C 208.957031 79.792969 211.621094 80.160156 213.875 81.023438 C 214.933594 81.429688 215.957031 81.96875 216.902344 82.601562 C 216.902344 82.449219 216.902344 82.277344 216.902344 82.121094 C 216.960938 80.542969 217.480469 79.195312 217.960938 78.097656 C 218.519531 76.867188 219.660156 75.886719 220.507812 75.152344 C 221.507812 74.289062 222.609375 73.554688 223.785156 72.941406 C 224.460938 72.59375 225.113281 72.363281 225.769531 72.132812 C 226.019531 72.035156 226.289062 71.9375 226.5625 71.84375 C 227.601562 71.457031 228.679688 71.128906 229.761719 70.898438 C 231.4375 70.535156 233.152344 70.359375 234.890625 70.378906 C 235.21875 70.378906 235.507812 70.589844 235.601562 70.917969 C 236.160156 72.671875 236.722656 75.441406 236.125 78.695312 C 235.71875 80.910156 234.8125 83.066406 233.519531 84.914062 C 233.519531 84.914062 233.5 84.933594 233.5 84.933594 C 232.480469 86.28125 231.246094 87.394531 229.839844 88.28125 C 228.875 88.878906 227.851562 89.359375 226.773438 89.707031 C 227.621094 91.515625 228.296875 93.421875 228.796875 95.363281 C 229.703125 98.925781 229.972656 102.5625 229.605469 106.183594 C 228.679688 115.347656 223.976562 121.621094 221.238281 124.566406 C 221.21875 124.585938 221.21875 124.585938 221.199219 124.605469 C 215.804688 129.589844 209.691406 133.652344 203.039062 136.636719 C 198.835938 138.523438 195.195312 139.851562 191.570312 140.773438 C 188.195312 141.640625 184.996094 142.160156 181.253906 142.757812 C 179.808594 142.988281 178.304688 143.238281 176.648438 143.507812 C 176.648438 143.507812 176.628906 143.507812 176.628906 143.507812 C 174.46875 143.910156 172.347656 144.046875 170.167969 144.046875 Z M 144.738281 137.617188 C 149.230469 139.5625 153.972656 140.890625 158.8125 141.5625 C 165.734375 142.527344 170.84375 142.910156 176.414062 142.082031 C 178.074219 141.792969 179.578125 141.5625 181.023438 141.3125 C 188.542969 140.101562 193.515625 139.292969 202.402344 135.289062 C 208.902344 132.363281 214.878906 128.417969 220.140625 123.546875 C 222.742188 120.753906 227.214844 114.789062 228.082031 106.085938 C 228.796875 98.945312 226.792969 93.191406 225 89.609375 C 224.902344 89.398438 224.882812 89.148438 224.980469 88.9375 C 225.074219 88.722656 225.269531 88.570312 225.5 88.511719 C 226.753906 88.203125 227.949219 87.703125 229.027344 87.03125 C 230.28125 86.242188 231.378906 85.257812 232.265625 84.066406 C 233.425781 82.390625 234.234375 80.445312 234.601562 78.445312 C 235.082031 75.808594 234.734375 73.535156 234.292969 71.9375 C 232.863281 71.957031 231.457031 72.113281 230.089844 72.421875 C 229.085938 72.632812 228.082031 72.941406 227.101562 73.304688 C 226.832031 73.402344 226.542969 73.496094 226.289062 73.59375 C 225.671875 73.804688 225.074219 74.019531 224.515625 74.304688 C 223.457031 74.863281 222.453125 75.539062 221.527344 76.308594 C 220.757812 76.960938 219.792969 77.789062 219.390625 78.714844 C 218.925781 79.734375 218.5 80.851562 218.464844 82.160156 C 218.445312 82.582031 218.464844 83.007812 218.5 83.410156 C 218.5 83.46875 218.5 83.527344 218.519531 83.605469 C 218.519531 83.679688 218.539062 83.835938 218.539062 83.929688 C 218.695312 84.199219 218.65625 84.566406 218.445312 84.816406 C 218.15625 85.144531 217.671875 85.164062 217.363281 84.894531 C 216.167969 83.835938 214.820312 83.027344 213.335938 82.46875 C 209.304688 80.929688 203.792969 81.199219 199.28125 83.140625 C 197.46875 83.910156 195.847656 85.007812 194.441406 86.375 C 195.519531 87.820312 196.832031 89.070312 198.316406 90.109375 C 199.761719 91.109375 201.363281 91.882812 203.039062 92.382812 C 203.058594 92.382812 203.078125 92.402344 203.097656 92.402344 C 205.101562 93.191406 207.203125 93.613281 209.34375 93.632812 C 211.792969 93.652344 214.28125 93.132812 216.535156 92.113281 C 216.902344 91.9375 217.324219 92.09375 217.519531 92.4375 C 217.597656 92.574219 218.308594 93.902344 218.617188 95.789062 C 219.042969 98.234375 218.65625 100.601562 217.519531 102.660156 C 215.839844 105.683594 212.777344 107.683594 209.304688 108.03125 C 208.6875 108.089844 208.050781 108.164062 207.359375 108.261719 C 205.875 108.472656 204.371094 108.492188 202.867188 108.339844 C 200.726562 108.109375 198.683594 107.492188 196.792969 106.511719 C 193.402344 104.71875 191.316406 102.179688 190.179688 100.332031 C 187.210938 96.191406 183.511719 92.707031 179.230469 89.976562 C 175.472656 87.589844 172.097656 86.011719 168.242188 84.816406 C 163.035156 83.21875 157.714844 82.757812 152.375 83.449219 C 152.296875 83.46875 152.21875 83.46875 152.144531 83.488281 C 152.066406 83.507812 151.988281 83.507812 151.910156 83.527344 C 145.742188 84.414062 140.285156 87.972656 136.914062 93.285156 C 135.851562 94.960938 134.925781 96.730469 134.15625 98.542969 C 132.015625 103.679688 131.050781 109.359375 131.378906 114.980469 L 132.015625 120.101562 C 132.554688 124.414062 134.289062 128.417969 137.085938 131.648438 C 137.144531 131.707031 137.183594 131.765625 137.238281 131.824219 C 139.339844 134.230469 141.867188 136.171875 144.738281 137.617188 Z M 218.386719 83.738281 Z M 218.386719 83.738281 " fill-opacity="1" fill-rule="nonzero"/></g><g clip-path="url(#6a0adf2422)"><path fill="#192544" d="M 134.40625 119.886719 L 134.289062 119.945312 C 134.25 119.964844 134.214844 119.984375 134.175781 119.984375 C 134.097656 120.003906 134.019531 120.042969 133.960938 120.0625 C 133.808594 120.121094 133.671875 120.15625 133.519531 120.195312 C 133.210938 120.292969 132.921875 120.351562 132.59375 120.410156 C 132.285156 120.464844 131.957031 120.503906 131.648438 120.523438 C 131.496094 120.542969 131.320312 120.542969 131.167969 120.542969 C 130.992188 120.542969 130.839844 120.542969 130.664062 120.523438 C 130.339844 120.503906 129.992188 120.445312 129.644531 120.351562 C 129.296875 120.253906 128.949219 120.101562 128.621094 119.886719 C 128.292969 119.675781 127.984375 119.367188 127.753906 119.023438 C 127.640625 118.847656 127.542969 118.65625 127.484375 118.464844 C 127.445312 118.367188 127.425781 118.273438 127.386719 118.175781 C 127.371094 118.078125 127.351562 117.984375 127.332031 117.886719 C 127.253906 117.464844 127.292969 117 127.445312 116.597656 C 127.523438 116.386719 127.621094 116.191406 127.714844 116.019531 C 127.832031 115.847656 127.949219 115.691406 128.082031 115.539062 C 128.351562 115.25 128.621094 115.039062 128.929688 114.824219 C 129.21875 114.632812 129.527344 114.480469 129.816406 114.324219 C 130.414062 114.054688 131.03125 113.84375 131.648438 113.691406 C 131.957031 113.613281 132.265625 113.554688 132.574219 113.496094 C 132.882812 113.441406 133.191406 113.402344 133.5 113.363281 C 135.988281 113.054688 138.453125 113.210938 140.863281 113.652344 C 141.460938 113.765625 142.058594 113.902344 142.65625 114.035156 C 142.8125 114.074219 142.945312 114.113281 143.101562 114.152344 L 143.523438 114.269531 L 144.394531 114.5 L 146.109375 114.960938 L 147.824219 115.402344 C 150.117188 116 152.414062 116.539062 154.707031 116.90625 L 155.132812 116.960938 L 155.554688 117.019531 C 155.691406 117.039062 155.84375 117.058594 155.980469 117.078125 C 156.113281 117.097656 156.269531 117.117188 156.402344 117.136719 C 156.980469 117.214844 157.558594 117.25 158.140625 117.289062 C 158.71875 117.328125 159.296875 117.347656 159.875 117.347656 C 160.453125 117.347656 161.03125 117.328125 161.589844 117.289062 L 162.015625 117.25 C 162.148438 117.230469 162.304688 117.230469 162.4375 117.214844 C 162.515625 117.214844 162.574219 117.195312 162.648438 117.195312 L 162.863281 117.175781 L 163.074219 117.15625 L 163.191406 117.136719 C 163.230469 117.136719 163.265625 117.117188 163.285156 117.117188 L 163.710938 117.058594 C 163.84375 117.039062 163.980469 117 164.117188 116.980469 C 164.191406 116.960938 164.25 116.960938 164.328125 116.945312 L 164.539062 116.886719 L 164.75 116.847656 L 164.945312 116.808594 L 165.347656 116.691406 L 165.753906 116.578125 C 165.890625 116.539062 166.023438 116.480469 166.160156 116.441406 L 166.351562 116.367188 C 166.410156 116.347656 166.488281 116.308594 166.542969 116.289062 C 166.679688 116.230469 166.8125 116.191406 166.949219 116.136719 L 167.335938 115.980469 C 167.605469 115.867188 167.855469 115.75 168.105469 115.632812 C 169.128906 115.132812 170.128906 114.554688 171.074219 113.902344 C 171.558594 113.574219 172 113.226562 172.464844 112.863281 C 172.695312 112.6875 172.90625 112.496094 173.117188 112.304688 C 173.234375 112.207031 173.332031 112.113281 173.425781 112.015625 L 173.582031 111.882812 L 173.660156 111.804688 L 173.714844 111.746094 L 173.734375 111.726562 C 174.042969 111.4375 174.527344 111.4375 174.816406 111.746094 C 175.105469 112.035156 175.105469 112.515625 174.816406 112.824219 L 174.71875 112.921875 L 174.640625 112.996094 L 174.46875 113.171875 C 174.351562 113.285156 174.238281 113.382812 174.121094 113.496094 C 173.890625 113.710938 173.660156 113.902344 173.425781 114.113281 C 172.964844 114.519531 172.464844 114.882812 171.980469 115.25 C 170.980469 115.960938 169.917969 116.617188 168.820312 117.15625 L 168.605469 117.25 L 168.511719 117.308594 L 168.414062 117.367188 L 167.992188 117.558594 L 167.566406 117.734375 C 167.429688 117.789062 167.277344 117.847656 167.140625 117.90625 C 167.066406 117.925781 167.007812 117.964844 166.929688 117.984375 L 166.71875 118.058594 C 166.5625 118.117188 166.429688 118.175781 166.273438 118.214844 L 165.832031 118.347656 L 165.386719 118.484375 L 165.273438 118.523438 L 165.15625 118.542969 L 164.925781 118.597656 L 164.695312 118.65625 C 164.617188 118.675781 164.539062 118.695312 164.460938 118.714844 C 164.308594 118.753906 164.152344 118.773438 164 118.8125 L 163.535156 118.886719 C 163.5 118.886719 163.460938 118.90625 163.421875 118.90625 L 163.304688 118.925781 L 162.84375 119.003906 C 162.765625 119.023438 162.6875 119.023438 162.613281 119.023438 C 162.457031 119.042969 162.304688 119.0625 162.148438 119.0625 L 161.6875 119.097656 C 161.070312 119.136719 160.453125 119.175781 159.835938 119.175781 C 159.21875 119.175781 158.601562 119.15625 158.003906 119.136719 C 156.789062 119.0625 155.574219 118.925781 154.378906 118.753906 C 153.78125 118.65625 153.183594 118.558594 152.585938 118.445312 C 151.988281 118.328125 151.410156 118.214844 150.8125 118.078125 C 149.636719 117.808594 148.480469 117.539062 147.324219 117.230469 C 146.167969 116.945312 145.007812 116.617188 143.871094 116.308594 L 143.003906 116.078125 L 142.582031 115.960938 C 142.445312 115.921875 142.3125 115.886719 142.15625 115.847656 C 141.597656 115.710938 141.039062 115.578125 140.480469 115.480469 C 139.921875 115.382812 139.339844 115.289062 138.78125 115.210938 C 138.203125 115.132812 137.644531 115.09375 137.066406 115.058594 C 135.929688 115 134.773438 115.019531 133.652344 115.152344 C 133.363281 115.191406 133.09375 115.230469 132.824219 115.269531 C 132.554688 115.308594 132.265625 115.363281 132.015625 115.441406 C 131.476562 115.578125 130.957031 115.730469 130.472656 115.941406 C 130.242188 116.058594 130.011719 116.171875 129.796875 116.308594 C 129.585938 116.441406 129.414062 116.578125 129.277344 116.730469 C 129.199219 116.808594 129.144531 116.886719 129.105469 116.960938 C 129.046875 117.039062 129.027344 117.117188 128.988281 117.195312 C 128.96875 117.269531 128.949219 117.347656 128.929688 117.425781 C 128.929688 117.445312 128.929688 117.464844 128.929688 117.484375 C 128.929688 117.5 128.929688 117.519531 128.929688 117.539062 C 128.929688 117.578125 128.929688 117.617188 128.949219 117.65625 C 128.949219 117.695312 128.96875 117.753906 128.96875 117.789062 C 128.988281 117.828125 128.988281 117.886719 129.007812 117.925781 C 129.046875 118.023438 129.085938 118.097656 129.125 118.175781 C 129.21875 118.328125 129.335938 118.445312 129.507812 118.558594 C 129.664062 118.675781 129.875 118.773438 130.085938 118.847656 C 130.320312 118.925781 130.550781 118.984375 130.800781 119.023438 C 131.320312 119.097656 131.859375 119.136719 132.421875 119.136719 C 132.710938 119.136719 132.980469 119.117188 133.269531 119.117188 C 133.402344 119.117188 133.558594 119.097656 133.691406 119.097656 L 134.117188 119.082031 L 134.15625 119.082031 C 134.40625 119.0625 134.636719 119.253906 134.636719 119.503906 C 134.695312 119.621094 134.578125 119.8125 134.40625 119.886719 Z M 134.40625 119.886719 " fill-opacity="1" fill-rule="nonzero"/></g><path fill="#aedaff" d="M 140.382812 115.078125 C 140.382812 115.363281 140.285156 115.691406 140.210938 115.902344 C 139.628906 117.230469 137.414062 117.828125 136.21875 118.445312 C 136.21875 118.445312 135.464844 118.828125 135.464844 118.828125 L 134.269531 119.425781 C 134.269531 119.425781 128.777344 120.910156 128.140625 117.789062 C 127.714844 115.75 130.53125 114.824219 131.996094 114.480469 C 133.5 114.132812 135.042969 114.035156 136.585938 114.074219 C 137.492188 114.09375 138.417969 114.171875 139.324219 114.289062 C 139.726562 114.34375 140.113281 114.289062 140.304688 114.652344 C 140.363281 114.789062 140.382812 114.941406 140.382812 115.078125 Z M 140.382812 115.078125 " fill-opacity="1" fill-rule="nonzero"/><path fill="#5aa0e5" d="M 136.21875 118.464844 L 135.464844 118.847656 C 135.332031 117.289062 135.292969 115.75 135.332031 114.191406 C 135.582031 114.171875 135.851562 114.152344 136.101562 114.152344 C 136.0625 115.578125 136.101562 117.019531 136.21875 118.464844 Z M 136.21875 118.464844 " fill-opacity="1" fill-rule="nonzero"/><g clip-path="url(#3855f410ca)"><path fill="#192544" d="M 134.40625 119.886719 L 134.308594 119.945312 C 134.269531 119.964844 134.25 119.984375 134.214844 120.003906 C 134.15625 120.042969 134.097656 120.0625 134.039062 120.101562 C 133.925781 120.15625 133.789062 120.214844 133.671875 120.273438 C 133.421875 120.371094 133.171875 120.445312 132.921875 120.503906 C 132.402344 120.621094 131.859375 120.660156 131.320312 120.640625 C 131.050781 120.640625 130.761719 120.621094 130.492188 120.582031 C 130.359375 120.5625 130.203125 120.542969 130.066406 120.503906 C 129.933594 120.464844 129.777344 120.445312 129.644531 120.410156 C 129.355469 120.332031 129.066406 120.214844 128.777344 120.042969 C 128.699219 120.003906 128.640625 119.964844 128.566406 119.90625 C 128.488281 119.851562 128.429688 119.8125 128.351562 119.753906 C 128.273438 119.695312 128.21875 119.636719 128.160156 119.582031 C 128.101562 119.523438 128.042969 119.464844 127.984375 119.386719 C 127.929688 119.332031 127.871094 119.253906 127.8125 119.175781 C 127.753906 119.097656 127.714844 119.023438 127.660156 118.964844 C 127.5625 118.8125 127.484375 118.65625 127.425781 118.503906 L 127.386719 118.386719 C 127.371094 118.347656 127.371094 118.308594 127.351562 118.273438 C 127.332031 118.195312 127.3125 118.117188 127.292969 118.023438 L 127.292969 117.945312 L 127.273438 117.886719 C 127.273438 117.847656 127.253906 117.789062 127.253906 117.753906 C 127.253906 117.65625 127.234375 117.558594 127.234375 117.484375 C 127.234375 117.289062 127.253906 117.097656 127.273438 116.925781 C 127.292969 116.828125 127.3125 116.730469 127.351562 116.65625 C 127.371094 116.617188 127.371094 116.558594 127.386719 116.519531 L 127.445312 116.386719 C 127.464844 116.347656 127.484375 116.308594 127.503906 116.269531 L 127.5625 116.15625 L 127.621094 116.039062 L 127.660156 115.980469 C 127.675781 115.960938 127.675781 115.941406 127.695312 115.921875 L 127.773438 115.808594 C 127.792969 115.769531 127.832031 115.730469 127.851562 115.710938 C 127.871094 115.671875 127.910156 115.632812 127.929688 115.617188 L 128.003906 115.519531 C 128.21875 115.269531 128.46875 115.078125 128.699219 114.902344 C 128.949219 114.730469 129.199219 114.574219 129.453125 114.441406 C 129.703125 114.304688 129.953125 114.191406 130.203125 114.09375 C 130.453125 114 130.722656 113.902344 130.972656 113.824219 C 131.996094 113.515625 133.039062 113.34375 134.078125 113.246094 C 134.597656 113.191406 135.121094 113.171875 135.621094 113.171875 C 136.140625 113.171875 136.640625 113.171875 137.164062 113.191406 C 139.207031 113.285156 141.230469 113.632812 143.199219 114.210938 C 143.660156 114.34375 143.929688 114.84375 143.796875 115.308594 C 143.660156 115.75 143.199219 116.019531 142.753906 115.902344 C 142.292969 115.789062 141.828125 115.691406 141.347656 115.597656 C 140.882812 115.5 140.402344 115.421875 139.9375 115.347656 C 139.476562 115.269531 138.996094 115.210938 138.511719 115.171875 C 138.03125 115.132812 137.566406 115.09375 137.085938 115.078125 C 136.140625 115.039062 135.195312 115.058594 134.25 115.132812 C 134.019531 115.152344 133.789062 115.171875 133.558594 115.210938 C 133.328125 115.25 133.09375 115.269531 132.863281 115.328125 C 132.75 115.347656 132.632812 115.363281 132.515625 115.382812 C 132.402344 115.402344 132.285156 115.421875 132.1875 115.460938 C 131.957031 115.519531 131.746094 115.578125 131.535156 115.632812 C 131.109375 115.769531 130.683594 115.921875 130.320312 116.097656 C 130.125 116.191406 129.953125 116.289062 129.796875 116.40625 C 129.644531 116.519531 129.488281 116.636719 129.394531 116.75 L 129.355469 116.789062 C 129.335938 116.808594 129.335938 116.828125 129.316406 116.828125 C 129.296875 116.847656 129.296875 116.867188 129.277344 116.867188 L 129.238281 116.90625 C 129.238281 116.90625 129.21875 116.925781 129.21875 116.925781 L 129.199219 116.945312 L 129.179688 116.980469 L 129.164062 117.019531 C 129.164062 117.039062 129.144531 117.058594 129.144531 117.058594 C 129.144531 117.078125 129.125 117.078125 129.125 117.097656 C 129.125 117.117188 129.125 117.117188 129.105469 117.136719 C 129.085938 117.15625 129.085938 117.195312 129.085938 117.214844 C 129.085938 117.269531 129.066406 117.328125 129.066406 117.386719 C 129.066406 117.425781 129.066406 117.445312 129.066406 117.484375 C 129.066406 117.5 129.066406 117.519531 129.066406 117.519531 L 129.066406 117.578125 C 129.066406 117.617188 129.085938 117.65625 129.085938 117.695312 C 129.085938 117.714844 129.085938 117.734375 129.105469 117.753906 L 129.125 117.808594 C 129.144531 117.886719 129.179688 117.945312 129.21875 118.003906 C 129.238281 118.039062 129.257812 118.058594 129.277344 118.097656 C 129.296875 118.117188 129.316406 118.15625 129.335938 118.175781 C 129.355469 118.195312 129.375 118.234375 129.414062 118.253906 C 129.433594 118.273438 129.46875 118.308594 129.488281 118.328125 C 129.507812 118.347656 129.546875 118.367188 129.585938 118.40625 C 129.625 118.425781 129.644531 118.445312 129.683594 118.464844 C 129.761719 118.503906 129.835938 118.542969 129.914062 118.578125 C 129.992188 118.617188 130.085938 118.65625 130.164062 118.675781 C 130.53125 118.792969 130.957031 118.847656 131.398438 118.867188 C 131.609375 118.886719 131.84375 118.867188 132.074219 118.867188 C 132.304688 118.867188 132.535156 118.847656 132.765625 118.847656 C 133 118.847656 133.230469 118.847656 133.480469 118.847656 C 133.597656 118.847656 133.710938 118.867188 133.847656 118.867188 C 133.90625 118.867188 133.960938 118.886719 134.039062 118.886719 C 134.078125 118.886719 134.097656 118.886719 134.136719 118.90625 C 134.175781 118.90625 134.195312 118.90625 134.234375 118.925781 L 134.328125 118.945312 C 134.578125 119.023438 134.734375 119.273438 134.675781 119.523438 C 134.558594 119.714844 134.484375 119.8125 134.40625 119.886719 Z M 134.40625 119.886719 " fill-opacity="1" fill-rule="nonzero"/></g><path fill="#192544" d="M 171.902344 109.589844 L 172.039062 109.589844 C 172.078125 109.589844 172.117188 109.609375 172.175781 109.609375 C 172.25 109.628906 172.347656 109.648438 172.425781 109.667969 C 172.578125 109.707031 172.753906 109.746094 172.90625 109.800781 C 173.214844 109.917969 173.523438 110.050781 173.8125 110.246094 C 174.101562 110.417969 174.371094 110.628906 174.621094 110.859375 C 174.875 111.089844 175.105469 111.359375 175.316406 111.628906 C 175.527344 111.917969 175.703125 112.226562 175.835938 112.535156 C 175.972656 112.84375 176.085938 113.191406 176.144531 113.515625 C 176.183594 113.691406 176.203125 113.84375 176.222656 114.019531 C 176.222656 114.09375 176.242188 114.191406 176.242188 114.269531 C 176.242188 114.34375 176.242188 114.441406 176.242188 114.519531 C 176.242188 114.554688 176.242188 114.59375 176.242188 114.652344 L 176.242188 114.769531 C 176.242188 114.84375 176.222656 114.941406 176.222656 115.019531 C 176.222656 115.09375 176.203125 115.191406 176.183594 115.269531 C 176.164062 115.347656 176.144531 115.421875 176.125 115.519531 C 176.03125 115.847656 175.703125 116.039062 175.375 115.941406 C 175.179688 115.886719 175.027344 115.75 174.96875 115.578125 L 174.949219 115.519531 C 174.890625 115.382812 174.875 115.25 174.835938 115.113281 C 174.816406 115.058594 174.796875 114.980469 174.777344 114.921875 L 174.757812 114.824219 C 174.738281 114.789062 174.738281 114.769531 174.71875 114.730469 C 174.699219 114.671875 174.679688 114.59375 174.660156 114.539062 C 174.640625 114.480469 174.621094 114.421875 174.601562 114.34375 C 174.566406 114.230469 174.507812 114.113281 174.46875 113.980469 C 174.371094 113.75 174.277344 113.515625 174.160156 113.304688 C 174.042969 113.09375 173.929688 112.863281 173.792969 112.671875 C 173.660156 112.457031 173.523438 112.265625 173.371094 112.054688 C 173.214844 111.863281 173.042969 111.667969 172.867188 111.476562 C 172.695312 111.285156 172.5 111.109375 172.289062 110.917969 C 172.191406 110.824219 172.078125 110.746094 171.980469 110.648438 L 171.828125 110.515625 L 171.75 110.457031 L 171.691406 110.398438 L 171.558594 110.226562 C 171.421875 110.03125 171.460938 109.761719 171.652344 109.628906 C 171.691406 109.589844 171.789062 109.570312 171.902344 109.589844 Z M 171.902344 109.589844 " fill-opacity="1" fill-rule="nonzero"/><path fill="#192544" d="M 175.105469 101.601562 C 175.105469 101.957031 175.078125 102.308594 175.023438 102.65625 C 174.972656 103.003906 174.890625 103.34375 174.789062 103.671875 C 174.683594 104 174.554688 104.3125 174.402344 104.605469 C 174.25 104.902344 174.078125 105.175781 173.886719 105.425781 C 173.691406 105.679688 173.480469 105.902344 173.253906 106.097656 C 173.027344 106.296875 172.785156 106.464844 172.535156 106.597656 C 172.28125 106.734375 172.019531 106.835938 171.753906 106.90625 C 171.484375 106.976562 171.214844 107.011719 170.941406 107.011719 C 170.667969 107.011719 170.394531 106.976562 170.128906 106.90625 C 169.859375 106.835938 169.597656 106.734375 169.347656 106.597656 C 169.09375 106.464844 168.855469 106.296875 168.625 106.097656 C 168.398438 105.902344 168.1875 105.679688 167.996094 105.425781 C 167.800781 105.175781 167.628906 104.902344 167.476562 104.605469 C 167.324219 104.3125 167.199219 104 167.09375 103.671875 C 166.988281 103.34375 166.910156 103.003906 166.855469 102.65625 C 166.800781 102.308594 166.777344 101.957031 166.777344 101.601562 C 166.777344 101.246094 166.800781 100.894531 166.855469 100.546875 C 166.910156 100.199219 166.988281 99.859375 167.09375 99.53125 C 167.199219 99.203125 167.324219 98.890625 167.476562 98.597656 C 167.628906 98.300781 167.800781 98.027344 167.996094 97.777344 C 168.1875 97.527344 168.398438 97.300781 168.625 97.105469 C 168.855469 96.90625 169.09375 96.742188 169.347656 96.605469 C 169.597656 96.46875 169.859375 96.367188 170.128906 96.296875 C 170.394531 96.226562 170.667969 96.191406 170.941406 96.191406 C 171.214844 96.191406 171.484375 96.226562 171.753906 96.296875 C 172.019531 96.367188 172.28125 96.46875 172.535156 96.605469 C 172.785156 96.742188 173.027344 96.90625 173.253906 97.105469 C 173.480469 97.300781 173.691406 97.527344 173.886719 97.777344 C 174.078125 98.027344 174.25 98.300781 174.402344 98.597656 C 174.554688 98.890625 174.683594 99.203125 174.789062 99.53125 C 174.890625 99.859375 174.972656 100.199219 175.023438 100.546875 C 175.078125 100.894531 175.105469 101.246094 175.105469 101.601562 Z M 175.105469 101.601562 " fill-opacity="1" fill-rule="nonzero"/><path fill="#ffffff" d="M 173.386719 99.117188 C 173.386719 99.371094 173.339844 99.613281 173.242188 99.847656 C 173.148438 100.082031 173.007812 100.289062 172.828125 100.464844 C 172.652344 100.644531 172.445312 100.78125 172.210938 100.878906 C 171.976562 100.976562 171.734375 101.023438 171.480469 101.023438 C 171.226562 101.023438 170.984375 100.976562 170.75 100.878906 C 170.515625 100.78125 170.308594 100.644531 170.128906 100.464844 C 169.953125 100.289062 169.8125 100.082031 169.714844 99.847656 C 169.621094 99.613281 169.570312 99.371094 169.570312 99.117188 C 169.570312 98.867188 169.621094 98.621094 169.714844 98.390625 C 169.8125 98.15625 169.953125 97.949219 170.128906 97.769531 C 170.308594 97.59375 170.515625 97.453125 170.75 97.359375 C 170.984375 97.261719 171.226562 97.214844 171.480469 97.214844 C 171.734375 97.214844 171.976562 97.261719 172.210938 97.359375 C 172.445312 97.453125 172.652344 97.59375 172.828125 97.769531 C 173.007812 97.949219 173.148438 98.15625 173.242188 98.390625 C 173.339844 98.621094 173.386719 98.867188 173.386719 99.117188 Z M 173.386719 99.117188 " fill-opacity="1" fill-rule="nonzero"/><path fill="#5aa0e5" d="M 210.230469 145.183594 C 209.882812 145.703125 209.324219 145.875 209.074219 145.953125 C 206.742188 146.683594 203.851562 146.046875 200.515625 143.910156 C 197.929688 142.257812 195.058594 139.695312 191.953125 136.171875 C 184.839844 128.070312 185.128906 119.792969 185.128906 119.792969 L 205.855469 124.816406 C 205.855469 125.703125 205.875 126.585938 205.933594 127.472656 C 205.949219 127.820312 205.96875 128.164062 205.988281 128.511719 C 206.242188 132.09375 207.089844 135.597656 208.496094 138.886719 C 208.496094 138.90625 208.515625 138.925781 208.515625 138.945312 C 209.84375 142.0625 211.058594 143.96875 210.230469 145.183594 Z M 210.230469 145.183594 " fill-opacity="1" fill-rule="nonzero"/><path fill="#192544" d="M 210.230469 145.183594 C 209.882812 145.703125 209.324219 145.875 209.074219 145.953125 C 206.742188 146.683594 203.851562 146.046875 200.515625 143.910156 C 201.632812 144.105469 202.808594 144.066406 203.695312 143.429688 C 204.773438 142.660156 205.160156 141.21875 205.082031 139.886719 C 205.007812 138.558594 204.5625 137.289062 204.332031 136 C 203.925781 133.75 204.160156 131.359375 204.988281 129.222656 C 205.21875 128.609375 205.527344 128.011719 205.914062 127.472656 C 205.933594 127.820312 205.949219 128.164062 205.96875 128.511719 C 206.222656 132.09375 207.070312 135.597656 208.476562 138.886719 C 208.476562 138.90625 208.496094 138.925781 208.496094 138.945312 C 209.84375 142.0625 211.058594 143.96875 210.230469 145.183594 Z M 210.230469 145.183594 " fill-opacity="0.32" fill-rule="nonzero"/><path fill="#192544" d="M 185.476562 119.8125 L 185.515625 120.042969 C 185.535156 120.121094 185.535156 120.195312 185.554688 120.273438 C 185.574219 120.351562 185.574219 120.425781 185.59375 120.503906 C 185.613281 120.582031 185.613281 120.660156 185.632812 120.734375 C 185.648438 120.890625 185.6875 121.042969 185.707031 121.199219 L 185.746094 121.429688 C 185.765625 121.503906 185.785156 121.582031 185.785156 121.660156 C 185.902344 122.277344 186.054688 122.871094 186.210938 123.488281 C 186.363281 124.085938 186.535156 124.683594 186.710938 125.277344 C 186.75 125.433594 186.808594 125.566406 186.84375 125.722656 L 186.921875 125.953125 L 187 126.164062 C 187.058594 126.316406 187.097656 126.453125 187.152344 126.605469 L 187.308594 127.050781 C 187.367188 127.203125 187.425781 127.339844 187.480469 127.492188 C 187.539062 127.625 187.597656 127.78125 187.65625 127.914062 L 187.847656 128.339844 C 187.886719 128.417969 187.90625 128.472656 187.945312 128.550781 L 188.039062 128.761719 L 188.234375 129.1875 L 188.445312 129.609375 C 188.582031 129.898438 188.734375 130.167969 188.871094 130.4375 C 188.945312 130.570312 189.023438 130.707031 189.101562 130.839844 L 189.332031 131.246094 C 189.410156 131.378906 189.488281 131.515625 189.582031 131.648438 L 189.832031 132.054688 L 190.085938 132.4375 L 190.21875 132.632812 C 190.257812 132.6875 190.296875 132.765625 190.355469 132.824219 L 190.625 133.210938 L 190.757812 133.402344 L 190.816406 133.496094 L 190.894531 133.59375 L 191.183594 133.960938 C 191.28125 134.074219 191.375 134.210938 191.472656 134.324219 L 191.761719 134.691406 L 191.914062 134.863281 C 191.933594 134.902344 191.972656 134.921875 191.992188 134.960938 L 192.070312 135.058594 L 192.378906 135.402344 L 192.53125 135.578125 C 192.589844 135.632812 192.628906 135.691406 192.6875 135.75 L 193.324219 136.441406 C 194.171875 137.367188 195.058594 138.273438 195.964844 139.136719 C 196.871094 140.003906 197.816406 140.832031 198.78125 141.601562 C 199.261719 141.988281 199.761719 142.351562 200.28125 142.71875 L 200.476562 142.851562 C 200.535156 142.890625 200.609375 142.929688 200.667969 142.988281 L 201.054688 143.238281 C 201.324219 143.390625 201.574219 143.566406 201.84375 143.71875 C 202.113281 143.875 202.382812 144.007812 202.65625 144.160156 L 203.058594 144.355469 C 203.136719 144.394531 203.195312 144.414062 203.269531 144.449219 L 203.484375 144.546875 C 204.042969 144.777344 204.601562 144.988281 205.160156 145.144531 C 205.71875 145.296875 206.296875 145.394531 206.875 145.414062 C 207.4375 145.433594 208.015625 145.394531 208.535156 145.277344 L 208.726562 145.21875 L 208.824219 145.203125 C 208.863281 145.203125 208.882812 145.183594 208.921875 145.183594 C 208.976562 145.164062 209.035156 145.144531 209.074219 145.125 C 209.132812 145.105469 209.171875 145.085938 209.210938 145.066406 C 209.304688 145.027344 209.363281 144.96875 209.421875 144.914062 C 209.480469 144.855469 209.535156 144.796875 209.574219 144.738281 C 209.613281 144.683594 209.632812 144.625 209.652344 144.546875 C 209.671875 144.46875 209.671875 144.375 209.671875 144.277344 C 209.671875 144.179688 209.652344 144.066406 209.632812 143.929688 L 209.632812 143.890625 L 209.613281 143.855469 L 209.59375 143.757812 C 209.574219 143.699219 209.554688 143.621094 209.535156 143.566406 C 209.460938 143.296875 209.363281 143.027344 209.246094 142.738281 C 209.132812 142.449219 209.015625 142.179688 208.882812 141.890625 L 208.109375 140.140625 C 207.976562 139.851562 207.859375 139.542969 207.726562 139.253906 C 207.609375 138.945312 207.472656 138.65625 207.359375 138.347656 C 207.242188 138.039062 207.128906 137.734375 207.011719 137.425781 C 206.953125 137.269531 206.914062 137.117188 206.855469 136.960938 L 206.78125 136.730469 L 206.703125 136.5 C 206.511719 135.886719 206.335938 135.25 206.164062 134.613281 C 206.007812 133.980469 205.855469 133.34375 205.738281 132.6875 C 205.625 132.054688 205.527344 131.398438 205.46875 130.746094 C 205.410156 130.089844 205.371094 129.4375 205.355469 128.78125 C 205.335938 128.128906 205.355469 127.492188 205.390625 126.835938 C 205.429688 126.183594 205.46875 125.546875 205.566406 124.914062 C 205.585938 124.757812 205.71875 124.664062 205.875 124.683594 C 205.988281 124.699219 206.085938 124.796875 206.105469 124.914062 C 206.203125 125.546875 206.277344 126.183594 206.355469 126.820312 C 206.433594 127.453125 206.511719 128.070312 206.605469 128.703125 C 206.625 128.859375 206.644531 129.011719 206.664062 129.167969 C 206.683594 129.320312 206.703125 129.476562 206.742188 129.628906 L 206.820312 130.089844 L 206.894531 130.554688 C 207.011719 131.167969 207.128906 131.785156 207.261719 132.382812 C 207.300781 132.535156 207.339844 132.6875 207.359375 132.84375 L 207.417969 133.074219 L 207.472656 133.304688 C 207.511719 133.460938 207.550781 133.613281 207.589844 133.765625 L 207.707031 134.210938 C 207.878906 134.808594 208.050781 135.402344 208.246094 136 L 208.324219 136.230469 L 208.398438 136.441406 C 208.457031 136.597656 208.496094 136.730469 208.554688 136.886719 C 208.667969 137.175781 208.765625 137.464844 208.882812 137.753906 C 208.996094 138.039062 209.113281 138.328125 209.246094 138.617188 C 209.363281 138.90625 209.5 139.195312 209.632812 139.484375 L 210.425781 141.234375 C 210.558594 141.523438 210.695312 141.832031 210.808594 142.140625 C 210.945312 142.449219 211.058594 142.777344 211.15625 143.121094 C 211.175781 143.199219 211.214844 143.296875 211.234375 143.390625 L 211.273438 143.527344 L 211.292969 143.605469 L 211.3125 143.679688 C 211.347656 143.875 211.367188 144.085938 211.367188 144.296875 C 211.367188 144.507812 211.347656 144.738281 211.292969 144.988281 C 211.234375 145.21875 211.136719 145.472656 211.023438 145.683594 C 210.886719 145.894531 210.730469 146.085938 210.558594 146.242188 C 210.386719 146.394531 210.191406 146.53125 210 146.644531 C 209.902344 146.703125 209.808594 146.742188 209.710938 146.78125 C 209.613281 146.820312 209.519531 146.855469 209.421875 146.875 C 209.382812 146.894531 209.324219 146.894531 209.285156 146.914062 L 209.152344 146.953125 C 209.054688 146.972656 208.976562 147.011719 208.882812 147.03125 C 208.167969 147.203125 207.453125 147.261719 206.742188 147.222656 C 206.027344 147.183594 205.335938 147.070312 204.660156 146.894531 C 203.984375 146.722656 203.347656 146.492188 202.730469 146.222656 L 202.5 146.125 C 202.421875 146.085938 202.347656 146.066406 202.269531 146.027344 L 201.804688 145.796875 C 201.515625 145.644531 201.207031 145.488281 200.917969 145.316406 C 200.628906 145.164062 200.339844 144.96875 200.070312 144.796875 L 199.648438 144.527344 C 199.570312 144.488281 199.511719 144.429688 199.433594 144.394531 L 199.222656 144.257812 C 198.683594 143.890625 198.164062 143.488281 197.640625 143.085938 C 196.621094 142.257812 195.636719 141.390625 194.710938 140.484375 C 193.785156 139.582031 192.878906 138.636719 192.011719 137.675781 C 191.800781 137.425781 191.589844 137.195312 191.375 136.945312 C 191.316406 136.886719 191.261719 136.828125 191.222656 136.75 L 191.066406 136.558594 L 190.757812 136.171875 L 190.683594 136.078125 C 190.664062 136.039062 190.625 136.019531 190.605469 135.980469 L 190.449219 135.789062 L 190.140625 135.402344 C 190.046875 135.269531 189.949219 135.132812 189.851562 135.019531 L 189.5625 134.613281 L 189.488281 134.519531 L 189.410156 134.421875 L 189.273438 134.210938 L 189.003906 133.804688 C 188.964844 133.75 188.910156 133.671875 188.871094 133.59375 L 188.734375 133.382812 L 188.464844 132.957031 L 188.214844 132.535156 C 188.136719 132.402344 188.039062 132.246094 187.964844 132.113281 L 187.730469 131.6875 C 187.65625 131.554688 187.578125 131.398438 187.5 131.246094 C 187.347656 130.957031 187.191406 130.667969 187.058594 130.359375 L 186.84375 129.917969 L 186.652344 129.476562 L 186.554688 129.242188 C 186.519531 129.167969 186.5 129.089844 186.460938 129.011719 L 186.265625 128.550781 C 186.210938 128.398438 186.152344 128.242188 186.09375 128.089844 C 186.035156 127.933594 185.976562 127.78125 185.921875 127.625 L 185.765625 127.164062 C 185.707031 127.011719 185.667969 126.855469 185.613281 126.703125 L 185.378906 126.011719 C 185.359375 125.933594 185.339844 125.855469 185.324219 125.777344 L 185.207031 125.296875 C 185.167969 125.144531 185.128906 124.96875 185.089844 124.816406 C 185.050781 124.664062 185.035156 124.488281 184.996094 124.335938 L 184.917969 123.835938 C 184.820312 123.179688 184.742188 122.527344 184.726562 121.871094 C 184.707031 121.542969 184.707031 121.21875 184.726562 120.890625 C 184.726562 120.714844 184.742188 120.5625 184.761719 120.390625 C 184.761719 120.3125 184.78125 120.214844 184.78125 120.140625 L 184.800781 120.003906 L 184.820312 119.871094 C 184.839844 119.675781 185.035156 119.542969 185.207031 119.582031 C 185.359375 119.601562 185.476562 119.734375 185.496094 119.871094 Z M 185.476562 119.8125 " fill-opacity="1" fill-rule="nonzero"/><path fill="#ffffff" d="M 177.496094 70.648438 C 177.785156 71.1875 178.613281 71.398438 179.039062 70.957031 C 179.269531 70.726562 179.328125 70.378906 179.421875 70.089844 C 179.789062 68.972656 180.832031 68.128906 181.988281 67.972656 C 181.175781 67.183594 179.65625 67.125 178.730469 67.761719 C 177.917969 68.300781 176.972656 69.707031 177.496094 70.648438 Z M 177.496094 70.648438 " fill-opacity="0.5" fill-rule="nonzero"/><path fill="#ffffff" d="M 197.660156 61.5625 C 198.296875 62.277344 196.503906 62.890625 196.082031 63.101562 C 194.808594 63.699219 193.652344 64.527344 192.589844 65.433594 C 192.148438 65.796875 190.894531 67.472656 190.546875 66.722656 C 189.757812 64.953125 193.707031 62.488281 194.828125 61.890625 C 195.347656 61.621094 195.867188 61.351562 196.464844 61.253906 C 196.792969 61.199219 197.160156 61.199219 197.429688 61.390625 C 197.527344 61.429688 197.601562 61.488281 197.660156 61.5625 Z M 197.660156 61.5625 " fill-opacity="0.5" fill-rule="nonzero"/><path fill="#ffffff" d="M 189.488281 67.992188 C 189.199219 68.242188 188.890625 68.53125 188.8125 68.917969 C 188.734375 69.300781 188.984375 69.761719 189.371094 69.746094 C 189.601562 69.726562 189.777344 69.550781 189.871094 69.359375 C 189.96875 69.148438 189.988281 68.9375 190.007812 68.703125 C 190.027344 68.53125 190.027344 68.339844 189.949219 68.183594 C 189.871094 68.03125 189.660156 67.933594 189.507812 68.03125 " fill-opacity="0.5" fill-rule="nonzero"/><g fill="#1f2d54" fill-opacity="1"><g transform="translate(236.923639, 143.246357)"><g><path d="M 63.359375 -34.25 L 45 -34.25 C 44.914062 -36.25 44.625 -38.269531 44.125 -40.3125 C 43.625 -42.351562 42.8125 -44.039062 41.6875 -45.375 C 40.5625 -46.707031 39.039062 -47.375 37.125 -47.375 C 34.707031 -47.375 32.664062 -46.601562 31 -45.0625 C 29.332031 -43.519531 28.101562 -41.539062 27.3125 -39.125 C 26.519531 -36.707031 26.125 -34.125 26.125 -31.375 C 26.125 -27.289062 27.269531 -23.832031 29.5625 -21 C 31.851562 -18.164062 35 -16.707031 39 -16.625 C 42.332031 -16.539062 45.164062 -17.144531 47.5 -18.4375 C 49.832031 -19.726562 52.039062 -21.5 54.125 -23.75 L 65.109375 -11 C 63.191406 -8.914062 60.691406 -6.894531 57.609375 -4.9375 C 54.535156 -2.976562 51.039062 -1.375 47.125 -0.125 C 43.207031 1.125 39 1.75 34.5 1.75 C 28.414062 1.75 22.75 0.519531 17.5 -1.9375 C 12.25 -4.394531 8.039062 -8.101562 4.875 -13.0625 C 1.707031 -18.019531 0.125 -24.207031 0.125 -31.625 C 0.125 -39.039062 1.582031 -45.101562 4.5 -49.8125 C 7.414062 -54.519531 11.207031 -57.992188 15.875 -60.234375 C 20.539062 -62.484375 25.539062 -63.609375 30.875 -63.609375 C 33.707031 -63.609375 36.164062 -63.191406 38.25 -62.359375 C 40.332031 -61.535156 42.0625 -60.5625 43.4375 -59.4375 C 44.8125 -58.3125 45.832031 -57.332031 46.5 -56.5 L 48.625 -62.484375 L 63.359375 -62.484375 Z M 63.359375 -34.25 "/></g></g></g><g fill="#1f2d54" fill-opacity="1"><g transform="translate(303.286274, 143.246357)"><g><path d="M 4.75 0 L 4.75 -16.25 L 9.875 -16.25 L 9.875 -77.359375 L 4.75 -77.359375 L 4.75 -93.734375 L 33.625 -93.734375 L 33.625 -37.25 L 48.125 -45.875 L 39.125 -45.875 L 39.125 -62.359375 L 74.109375 -62.359375 L 74.109375 -45.875 L 64.484375 -45.875 L 56 -40.5 L 72.859375 -16.375 L 79.109375 -16.375 L 79.109375 0 L 42.125 0 L 42.125 -16.375 L 47.375 -16.375 L 37.875 -29.875 L 33.5 -26.875 L 33.5 -16.375 L 38.125 -16.375 L 38.125 0 Z M 4.75 0 "/></g></g></g><g fill="#1f2d54" fill-opacity="1"><g transform="translate(385.021044, 143.246357)"><g><path d="M 55.375 -20.75 L 65.859375 -8.625 C 61.285156 -4.625 56.394531 -1.8125 51.1875 -0.1875 C 45.976562 1.4375 40.125 2.25 33.625 2.25 C 29.789062 2.25 25.914062 1.601562 22 0.3125 C 18.082031 -0.976562 14.519531 -2.976562 11.3125 -5.6875 C 8.101562 -8.394531 5.519531 -11.894531 3.5625 -16.1875 C 1.601562 -20.476562 0.625 -25.625 0.625 -31.625 C 0.625 -38.457031 2.125 -44.3125 5.125 -49.1875 C 8.125 -54.0625 12.164062 -57.785156 17.25 -60.359375 C 22.332031 -62.941406 28 -64.234375 34.25 -64.234375 C 41.664062 -64.234375 48.039062 -62.523438 53.375 -59.109375 C 58.707031 -55.703125 62.285156 -51.375 64.109375 -46.125 C 64.609375 -44.707031 65.046875 -42.789062 65.421875 -40.375 C 65.796875 -37.957031 65.941406 -35.394531 65.859375 -32.6875 C 65.773438 -29.976562 65.273438 -27.414062 64.359375 -25 L 25 -25 C 25.25 -23.914062 25.707031 -22.5625 26.375 -20.9375 C 27.039062 -19.3125 28.25 -17.875 30 -16.625 C 31.75 -15.375 34.375 -14.75 37.875 -14.75 C 40.039062 -14.75 42.664062 -15.039062 45.75 -15.625 C 48.832031 -16.207031 52.039062 -17.914062 55.375 -20.75 Z M 25.375 -37.375 L 44.25 -37.375 C 44.25 -38.957031 44.019531 -40.519531 43.5625 -42.0625 C 43.101562 -43.601562 42.226562 -44.875 40.9375 -45.875 C 39.644531 -46.875 37.664062 -47.375 35 -47.375 C 32.5 -47.375 30.5625 -46.75 29.1875 -45.5 C 27.8125 -44.25 26.851562 -42.851562 26.3125 -41.3125 C 25.769531 -39.769531 25.457031 -38.457031 25.375 -37.375 Z M 25.375 -37.375 "/></g></g></g><g fill="#1f2d54" fill-opacity="1"><g transform="translate(452.758425, 143.246357)"><g><path d="M 38.5 0 L 3.125 0 L 3.125 -16.375 L 8.625 -16.375 L 8.625 -46.25 L 3.25 -46.25 L 3.25 -62.484375 L 26.75 -62.484375 L 30.5 -54.5 C 31.582031 -56.5 32.789062 -58.347656 34.125 -60.046875 C 35.457031 -61.753906 37.351562 -63.109375 39.8125 -64.109375 C 42.269531 -65.109375 45.625 -65.609375 49.875 -65.609375 L 49.875 -43.125 C 44.289062 -43.125 39.957031 -42.1875 36.875 -40.3125 C 33.789062 -38.4375 32.25 -34.75 32.25 -29.25 L 32.25 -16.375 L 38.5 -16.375 Z M 38.5 0 "/></g></g></g><g fill="#1f2d54" fill-opacity="1"><g transform="translate(504.498787, 143.246357)"><g><path d="M 3.125 0 L 3.125 -31.5 L 26.375 -31.5 C 26.375 -28.914062 26.9375 -26.8125 28.0625 -25.1875 C 29.1875 -23.5625 30.601562 -22.3125 32.3125 -21.4375 C 34.019531 -20.5625 35.75 -19.957031 37.5 -19.625 C 39.25 -19.289062 40.789062 -19.082031 42.125 -19 C 43.625 -19 45.1875 -19.144531 46.8125 -19.4375 C 48.4375 -19.726562 49.832031 -20.332031 51 -21.25 C 52.164062 -22.164062 52.75 -23.5 52.75 -25.25 C 52.75 -26.664062 51.875 -27.832031 50.125 -28.75 C 48.375 -29.664062 46.082031 -30.539062 43.25 -31.375 C 40.414062 -32.207031 37.289062 -33.101562 33.875 -34.0625 C 30.457031 -35.019531 27.039062 -36.207031 23.625 -37.625 C 20.207031 -39.039062 17.082031 -40.851562 14.25 -43.0625 C 11.414062 -45.269531 9.125 -47.957031 7.375 -51.125 C 5.625 -54.289062 4.75 -58.160156 4.75 -62.734375 C 4.75 -67.398438 5.707031 -71.421875 7.625 -74.796875 C 9.539062 -78.171875 12.019531 -80.941406 15.0625 -83.109375 C 18.101562 -85.273438 21.332031 -86.898438 24.75 -87.984375 C 28.164062 -89.066406 31.414062 -89.609375 34.5 -89.609375 C 39.75 -89.609375 44.789062 -88.648438 49.625 -86.734375 C 54.457031 -84.816406 58.125 -81.523438 60.625 -76.859375 L 61.875 -87.359375 L 83.359375 -87.359375 L 83.359375 -56 L 60.75 -56 C 60.75 -60.65625 59.1875 -64.234375 56.0625 -66.734375 C 52.9375 -69.234375 49.164062 -70.484375 44.75 -70.484375 C 42.914062 -70.484375 41.019531 -69.921875 39.0625 -68.796875 C 37.101562 -67.671875 36.125 -66.023438 36.125 -63.859375 C 36.125 -62.035156 37.019531 -60.476562 38.8125 -59.1875 C 40.601562 -57.894531 42.976562 -56.707031 45.9375 -55.625 C 48.894531 -54.539062 52.125 -53.4375 55.625 -52.3125 C 59.125 -51.1875 62.617188 -49.875 66.109375 -48.375 C 69.609375 -46.875 72.835938 -45.082031 75.796875 -43 C 78.753906 -40.914062 81.128906 -38.375 82.921875 -35.375 C 84.710938 -32.375 85.609375 -28.789062 85.609375 -24.625 C 85.609375 -19.789062 84.609375 -15.664062 82.609375 -12.25 C 80.609375 -8.832031 77.960938 -6.101562 74.671875 -4.0625 C 71.378906 -2.019531 67.796875 -0.519531 63.921875 0.4375 C 60.054688 1.394531 56.25 1.875 52.5 1.875 C 46.164062 1.875 40.832031 0.664062 36.5 -1.75 C 32.164062 -4.164062 28.789062 -6.789062 26.375 -9.625 L 25 0 Z M 3.125 0 "/></g></g></g><g fill="#1f2d54" fill-opacity="1"><g transform="translate(593.232262, 143.246357)"><g><path d="M 42.375 0 L 3.125 0 L 3.125 -16.375 L 8.375 -16.375 L 8.375 -77.484375 L 3.125 -77.484375 L 3.125 -93.734375 L 33.375 -93.734375 L 33.375 -54.75 C 33.875 -55.5 35.101562 -56.6875 37.0625 -58.3125 C 39.019531 -59.9375 41.414062 -61.410156 44.25 -62.734375 C 47.082031 -64.066406 50 -64.734375 53 -64.734375 C 57.832031 -64.734375 61.703125 -63.921875 64.609375 -62.296875 C 67.523438 -60.679688 69.710938 -58.539062 71.171875 -55.875 C 72.628906 -53.207031 73.609375 -50.25 74.109375 -47 C 74.609375 -43.75 74.859375 -40.5 74.859375 -37.25 L 74.859375 -16.375 L 80.734375 -16.375 L 80.734375 0 L 48.625 0 L 48.625 -34 C 48.625 -35.414062 48.519531 -37.039062 48.3125 -38.875 C 48.101562 -40.707031 47.5 -42.289062 46.5 -43.625 C 45.5 -44.957031 43.75 -45.625 41.25 -45.625 C 39.164062 -45.625 37.539062 -45.019531 36.375 -43.8125 C 35.207031 -42.601562 34.414062 -41.125 34 -39.375 C 33.582031 -37.625 33.375 -35.832031 33.375 -34 L 33.375 -16.375 L 42.375 -16.375 Z M 42.375 0 "/></g></g></g><g fill="#1f2d54" fill-opacity="1"><g transform="translate(675.84187, 143.246357)"><g><path d="M 38.5 0 L 3.125 0 L 3.125 -16.375 L 8.625 -16.375 L 8.625 -46.25 L 3.25 -46.25 L 3.25 -62.484375 L 26.75 -62.484375 L 30.5 -54.5 C 31.582031 -56.5 32.789062 -58.347656 34.125 -60.046875 C 35.457031 -61.753906 37.351562 -63.109375 39.8125 -64.109375 C 42.269531 -65.109375 45.625 -65.609375 49.875 -65.609375 L 49.875 -43.125 C 44.289062 -43.125 39.957031 -42.1875 36.875 -40.3125 C 33.789062 -38.4375 32.25 -34.75 32.25 -29.25 L 32.25 -16.375 L 38.5 -16.375 Z M 38.5 0 "/></g></g></g><g fill="#1f2d54" fill-opacity="1"><g transform="translate(727.582209, 143.246357)"><g><path d="M 6.625 -80.734375 C 6.625 -82.648438 7.144531 -84.585938 8.1875 -86.546875 C 9.226562 -88.503906 10.75 -90.148438 12.75 -91.484375 C 14.75 -92.816406 17.207031 -93.484375 20.125 -93.484375 C 23.039062 -93.484375 25.519531 -92.816406 27.5625 -91.484375 C 29.601562 -90.148438 31.164062 -88.503906 32.25 -86.546875 C 33.332031 -84.585938 33.875 -82.648438 33.875 -80.734375 C 33.875 -77.316406 32.6875 -74.359375 30.3125 -71.859375 C 27.9375 -69.359375 24.539062 -68.109375 20.125 -68.109375 C 17.539062 -68.109375 15.226562 -68.753906 13.1875 -70.046875 C 11.144531 -71.335938 9.539062 -72.941406 8.375 -74.859375 C 7.207031 -76.773438 6.625 -78.734375 6.625 -80.734375 Z M 38.125 0 L 3.125 0 L 3.125 -16.375 L 8.375 -16.375 L 8.375 -46.25 L 3.125 -46.25 L 3.125 -62.484375 L 32.125 -62.484375 L 32.125 -16.375 L 38.125 -16.375 Z M 38.125 0 "/></g></g></g><g fill="#1f2d54" fill-opacity="1"><g transform="translate(768.824536, 143.246357)"><g><path d="M 41.625 0 L 3.125 0 L 3.125 -16.375 L 8.375 -16.375 L 8.375 -46.25 L 3.125 -46.25 L 3.125 -62.484375 L 29.75 -62.484375 L 32.625 -54.75 C 34.789062 -57.664062 37.332031 -60.054688 40.25 -61.921875 C 43.164062 -63.796875 46.582031 -64.734375 50.5 -64.734375 C 55.332031 -64.734375 59.242188 -63.921875 62.234375 -62.296875 C 65.234375 -60.679688 67.503906 -58.539062 69.046875 -55.875 C 70.585938 -53.207031 71.648438 -50.25 72.234375 -47 C 72.816406 -43.75 73.109375 -40.5 73.109375 -37.25 L 73.109375 -16.375 L 78.984375 -16.375 L 78.984375 0 L 47.5 0 L 47.5 -34.125 C 47.5 -35.539062 47.4375 -37.164062 47.3125 -39 C 47.1875 -40.832031 46.644531 -42.414062 45.6875 -43.75 C 44.726562 -45.082031 43 -45.75 40.5 -45.75 C 38.414062 -45.75 36.789062 -45.144531 35.625 -43.9375 C 34.457031 -42.726562 33.664062 -41.25 33.25 -39.5 C 32.832031 -37.75 32.625 -35.957031 32.625 -34.125 L 32.625 -16.375 L 41.625 -16.375 Z M 41.625 0 "/></g></g></g><g fill="#1f2d54" fill-opacity="1"><g transform="translate(849.684467, 143.246357)"><g><path d="M 4.75 0 L 4.75 -16.25 L 9.875 -16.25 L 9.875 -77.359375 L 4.75 -77.359375 L 4.75 -93.734375 L 33.625 -93.734375 L 33.625 -37.25 L 48.125 -45.875 L 39.125 -45.875 L 39.125 -62.359375 L 74.109375 -62.359375 L 74.109375 -45.875 L 64.484375 -45.875 L 56 -40.5 L 72.859375 -16.375 L 79.109375 -16.375 L 79.109375 0 L 42.125 0 L 42.125 -16.375 L 47.375 -16.375 L 37.875 -29.875 L 33.5 -26.875 L 33.5 -16.375 L 38.125 -16.375 L 38.125 0 Z M 4.75 0 "/></g></g></g><g fill="#1f2d54" fill-opacity="1"><g transform="translate(37.245461, 143.246357)"><g><path d="M 3.125 0 L 3.125 -16.625 L 10.875 -16.625 L 10.875 -70.859375 L 3.125 -70.859375 L 3.125 -87.359375 L 41.25 -87.359375 C 51.332031 -87.359375 59.910156 -85.484375 66.984375 -81.734375 C 74.066406 -77.984375 79.460938 -72.898438 83.171875 -66.484375 C 86.878906 -60.078125 88.734375 -52.875 88.734375 -44.875 C 88.734375 -30.625 84.585938 -19.582031 76.296875 -11.75 C 68.003906 -3.914062 56.15625 0 40.75 0 Z M 36.5 -16.625 L 41.25 -16.625 C 45.664062 -16.707031 49.25 -18.019531 52 -20.5625 C 54.75 -23.101562 56.769531 -26.5 58.0625 -30.75 C 59.351562 -35 60 -39.707031 60 -44.875 C 60 -49.375 59.351562 -53.597656 58.0625 -57.546875 C 56.769531 -61.503906 54.75 -64.710938 52 -67.171875 C 49.25 -69.628906 45.664062 -70.859375 41.25 -70.859375 L 36.5 -70.859375 Z M 36.5 -16.625 "/></g></g></g></svg>